# Blender 3.6.1
# www.blender.org
mtllib Model_3.mtl
o Cube
v 0.500000 0.500000 -0.500000
v 0.500000 -0.500000 -0.500000
v -0.500000 0.500000 -0.500000
v -0.500000 -0.500000 -0.500000
v 0.500000 0.500000 0.500000
v 0.500000 -0.500000 0.500000
v -0.500000 0.500000 0.500000
v -0.500000 -0.500000 0.500000
vn -0.0000 -0.0000 -1.0000
vn -1.0000 -0.0000 -0.0000
vn -0.0000 -0.0000 1.0000
vn 1.0000 -0.0000 -0.0000
vn -0.0000 1.0000 -0.0000
vn -0.0000 -1.0000 -0.0000
vt 0.370847 0.629523
vt 0.370847 0.996190
vt 0.004180 0.996190
vt 0.004180 0.629523
vt 0.370794 0.253626
vt 0.370795 0.620292
vt 0.004128 0.620292
vt 0.004128 0.253626
vt 1.121173 0.628983
vt 1.121173 0.995649
vt 0.754506 0.995649
vt 0.754506 0.628983
vt 0.745296 0.628959
vt 0.745296 0.995626
vt 0.378630 0.995626
vt 0.378630 0.628959
vt 0.754584 0.620691
vt 0.754584 0.254024
vt 1.121250 0.254024
vt 1.121250 0.620691
vt 0.379074 0.620429
vt 0.379074 0.253763
vt 0.745740 0.253763
vt 0.745741 0.620429
s 0
usemtl Material_Cube_2
f 1/1/1 2/2/1 4/3/1 3/4/1
f 3/5/2 4/6/2 8/7/2 7/8/2
f 7/9/3 8/10/3 6/11/3 5/12/3
f 5/13/4 6/14/4 2/15/4 1/16/4
f 3/17/5 7/18/5 5/19/5 1/20/5
f 8/21/6 4/22/6 2/23/6 6/24/6
o Cylinder
v 2.129410 0.482963 0.500000
v 2.129410 0.482963 -0.500000
v 2.032701 0.498930 0.500000
v 2.032701 0.498930 -0.500000
v 1.934737 0.495722 0.500000
v 1.934737 0.495723 -0.500000
v 1.839280 0.473465 0.500000
v 1.839280 0.473465 -0.500000
v 1.750000 0.433013 0.500000
v 1.750000 0.433013 -0.500000
v 1.670327 0.375920 0.500000
v 1.670327 0.375920 -0.500000
v 1.603323 0.304381 0.500000
v 1.603323 0.304381 -0.500000
v 1.551564 0.221144 0.500000
v 1.551564 0.221144 -0.500000
v 1.517037 0.129410 0.500000
v 1.517037 0.129410 -0.500000
v 1.501070 0.032702 0.500000
v 1.501070 0.032702 -0.500000
v 1.504278 -0.065263 0.500000
v 1.504278 -0.065263 -0.500000
v 1.526535 -0.160720 0.500000
v 1.526535 -0.160720 -0.500000
v 1.566987 -0.250000 0.500000
v 1.566987 -0.250000 -0.500000
v 1.624080 -0.329673 0.500000
v 1.624080 -0.329673 -0.500000
v 1.695619 -0.396677 0.500000
v 1.695619 -0.396677 -0.500000
v 1.778856 -0.448436 0.500000
v 1.778856 -0.448436 -0.500000
v 1.870590 -0.482963 0.500000
v 1.870590 -0.482963 -0.500000
v 1.967298 -0.498929 0.500000
v 1.967298 -0.498929 -0.500000
v 2.065263 -0.495722 0.500000
v 2.065263 -0.495722 -0.500000
v 2.160720 -0.473465 0.500000
v 2.160720 -0.473465 -0.500000
v 2.250000 -0.433013 0.500000
v 2.250000 -0.433013 -0.500000
v 2.329673 -0.375920 0.500000
v 2.329673 -0.375920 -0.500000
v 2.396677 -0.304381 0.500000
v 2.396677 -0.304381 -0.500000
v 2.448436 -0.221144 0.500000
v 2.448436 -0.221144 -0.500000
v 2.482963 -0.129409 0.500000
v 2.482963 -0.129409 -0.500000
v 2.498930 -0.032701 0.500000
v 2.498930 -0.032701 -0.500000
v 2.495722 0.065263 0.500000
v 2.495722 0.065263 -0.500000
v 2.473465 0.160720 0.500000
v 2.473465 0.160720 -0.500000
v 2.433013 0.250000 0.500000
v 2.433013 0.250000 -0.500000
v 2.375920 0.329673 0.500000
v 2.375920 0.329673 -0.500000
v 2.304381 0.396677 0.500000
v 2.304381 0.396677 -0.500000
v 2.221144 0.448436 0.500000
v 2.221144 0.448436 -0.500000
vn 0.1629 0.9866 -0.0000
vn -0.0327 0.9995 -0.0000
vn -0.2271 0.9739 -0.0000
vn -0.4127 0.9109 -0.0000
vn -0.5825 0.8128 -0.0000
vn -0.7299 0.6836 -0.0000
vn -0.8492 0.5281 -0.0000
vn -0.9359 0.3523 -0.0000
vn -0.9866 0.1629 -0.0000
vn -0.9995 -0.0327 -0.0000
vn -0.9739 -0.2271 -0.0000
vn -0.9109 -0.4127 -0.0000
vn -0.8128 -0.5825 -0.0000
vn -0.6836 -0.7299 -0.0000
vn -0.5281 -0.8492 -0.0000
vn -0.3523 -0.9359 -0.0000
vn -0.1629 -0.9866 -0.0000
vn 0.0327 -0.9995 -0.0000
vn 0.2271 -0.9739 -0.0000
vn 0.4127 -0.9109 -0.0000
vn 0.5825 -0.8128 -0.0000
vn 0.7299 -0.6836 -0.0000
vn 0.8492 -0.5281 -0.0000
vn 0.9359 -0.3523 -0.0000
vn 0.9866 -0.1629 -0.0000
vn 0.9995 0.0327 -0.0000
vn 0.9739 0.2271 -0.0000
vn 0.9109 0.4127 -0.0000
vn 0.8128 0.5825 -0.0000
vn 0.6836 0.7299 -0.0000
vn -0.0000 -0.0000 -1.0000
vn 0.5281 0.8492 -0.0000
vn 0.3523 0.9359 -0.0000
vn -0.0000 -0.0000 1.0000
vt 0.212360 0.750776
vt 0.212360 0.999247
vt 0.188005 0.999247
vt 0.188005 0.750776
vt 0.163651 0.999247
vt 0.163651 0.750776
vt 0.139296 0.999247
vt 0.139296 0.750776
vt 0.114942 0.999247
vt 0.114942 0.750776
vt 0.090587 0.999247
vt 0.090587 0.750776
vt 0.066233 0.999247
vt 0.066233 0.750776
vt 0.041878 0.999247
vt 0.041878 0.750776
vt 0.017524 0.999247
vt 0.017524 0.750776
vt -0.006831 0.999247
vt -0.006831 0.750776
vt -0.031185 0.999247
vt -0.031185 0.750776
vt 0.748158 0.750776
vt 0.748158 0.999247
vt 0.723804 0.999247
vt 0.723804 0.750776
vt 0.699449 0.999247
vt 0.699449 0.750776
vt 0.675095 0.999247
vt 0.675095 0.750776
vt 0.650740 0.999247
vt 0.650740 0.750776
vt 0.626386 0.999247
vt 0.626386 0.750776
vt 0.602031 0.999247
vt 0.602031 0.750776
vt 0.577677 0.999247
vt 0.577677 0.750776
vt 0.553322 0.999247
vt 0.553322 0.750776
vt 0.528968 0.999247
vt 0.528968 0.750776
vt 0.504613 0.999247
vt 0.504613 0.750776
vt 0.480259 0.999247
vt 0.480259 0.750776
vt 0.455904 0.999247
vt 0.455904 0.750776
vt 0.431550 0.999247
vt 0.431550 0.750776
vt 0.407195 0.999247
vt 0.407195 0.750776
vt 0.382841 0.999247
vt 0.382841 0.750776
vt 0.358486 0.999247
vt 0.358486 0.750776
vt 0.334132 0.999247
vt 0.334132 0.750776
vt 0.309778 0.999247
vt 0.309778 0.750776
vt 0.285423 0.999247
vt 0.285423 0.750776
vt 0.261069 0.999247
vt 0.261069 0.750776
vt 0.815386 0.881686
vt 0.826227 0.883113
vt 0.836582 0.886628
vt 0.846052 0.892096
vt 0.854273 0.899306
vt 0.860930 0.907981
vt 0.865766 0.917788
vt 0.868596 0.928350
vt 0.869312 0.939262
vt 0.867884 0.950103
vt 0.864369 0.960458
vt 0.858902 0.969927
vt 0.851692 0.978149
vt 0.843017 0.984806
vt 0.833210 0.989642
vt 0.822647 0.992472
vt 0.811736 0.993187
vt 0.800895 0.991760
vt 0.790540 0.988245
vt 0.781070 0.982778
vt 0.772849 0.975568
vt 0.766192 0.966892
vt 0.761356 0.957085
vt 0.758526 0.946523
vt 0.757810 0.935612
vt 0.759238 0.924770
vt 0.762753 0.914416
vt 0.768220 0.904946
vt 0.775430 0.896725
vt 0.784105 0.890068
vt 0.793912 0.885231
vt 0.804475 0.882401
vt 0.236714 0.999247
vt 0.236714 0.750776
vt 0.800065 0.758827
vt 0.810869 0.757143
vt 0.821795 0.757600
vt 0.832421 0.760178
vt 0.842340 0.764781
vt 0.851171 0.771230
vt 0.858574 0.779278
vt 0.864264 0.788616
vt 0.868024 0.798884
vt 0.869708 0.809688
vt 0.869251 0.820614
vt 0.866673 0.831240
vt 0.862070 0.841159
vt 0.855621 0.849990
vt 0.847573 0.857393
vt 0.838235 0.863083
vt 0.827967 0.866843
vt 0.817163 0.868527
vt 0.806237 0.868070
vt 0.795611 0.865492
vt 0.785692 0.860889
vt 0.776861 0.854440
vt 0.769458 0.846392
vt 0.763768 0.837054
vt 0.760008 0.826786
vt 0.758325 0.815982
vt 0.758781 0.805056
vt 0.761360 0.794430
vt 0.765962 0.784511
vt 0.772411 0.775680
vt 0.780459 0.768277
vt 0.789797 0.762587
s 0
usemtl Material_Cube
f 12/89/37 10/90/37 72/91/37 70/92/37 68/93/37 66/94/37 64/95/37 62/96/37 60/97/37 58/98/37 56/99/37 54/100/37 52/101/37 50/102/37 48/103/37 46/104/37 44/105/37 42/106/37 40/107/37 38/108/37 36/109/37 34/110/37 32/111/37 30/112/37 28/113/37 26/114/37 24/115/37 22/116/37 20/117/37 18/118/37 16/119/37 14/120/37
f 9/123/40 11/124/40 13/125/40 15/126/40 17/127/40 19/128/40 21/129/40 23/130/40 25/131/40 27/132/40 29/133/40 31/134/40 33/135/40 35/136/40 37/137/40 39/138/40 41/139/40 43/140/40 45/141/40 47/142/40 49/143/40 51/144/40 53/145/40 55/146/40 57/147/40 59/148/40 61/149/40 63/150/40 65/151/40 67/152/40 69/153/40 71/154/40
usemtl Material_Cylinder
f 9/25/7 10/26/7 12/27/7 11/28/7
f 11/28/8 12/27/8 14/29/8 13/30/8
f 13/30/9 14/29/9 16/31/9 15/32/9
f 15/32/10 16/31/10 18/33/10 17/34/10
f 17/34/11 18/33/11 20/35/11 19/36/11
f 19/36/12 20/35/12 22/37/12 21/38/12
f 21/38/13 22/37/13 24/39/13 23/40/13
f 23/40/14 24/39/14 26/41/14 25/42/14
f 25/42/15 26/41/15 28/43/15 27/44/15
f 27/44/16 28/43/16 30/45/16 29/46/16
f 29/47/17 30/48/17 32/49/17 31/50/17
f 31/50/18 32/49/18 34/51/18 33/52/18
f 33/52/19 34/51/19 36/53/19 35/54/19
f 35/54/20 36/53/20 38/55/20 37/56/20
f 37/56/21 38/55/21 40/57/21 39/58/21
f 39/58/22 40/57/22 42/59/22 41/60/22
f 41/60/23 42/59/23 44/61/23 43/62/23
f 43/62/24 44/61/24 46/63/24 45/64/24
f 45/64/25 46/63/25 48/65/25 47/66/25
f 47/66/26 48/65/26 50/67/26 49/68/26
f 49/68/27 50/67/27 52/69/27 51/70/27
f 51/70/28 52/69/28 54/71/28 53/72/28
f 53/72/29 54/71/29 56/73/29 55/74/29
f 55/74/30 56/73/30 58/75/30 57/76/30
f 57/76/31 58/75/31 60/77/31 59/78/31
f 59/78/32 60/77/32 62/79/32 61/80/32
f 61/80/33 62/79/33 64/81/33 63/82/33
f 63/82/34 64/81/34 66/83/34 65/84/34
f 65/84/35 66/83/35 68/85/35 67/86/35
f 67/86/36 68/85/36 70/87/36 69/88/36
f 69/88/38 70/87/38 72/121/38 71/122/38
f 71/122/39 72/121/39 10/26/39 9/25/39
