# Blender 4.3.0
# www.blender.org
mtllib Bridge.mtl
o Bridge
v 1.333333 0.000000 -6.000000
v 4.000000 0.000000 -6.000000
v 1.333333 0.000000 -2.000000
v 4.000000 0.000000 -2.000000
v 1.333333 -2.000000 -6.000000
v 4.000000 -2.000000 -6.000000
v 1.333333 -2.000000 -2.000000
v 4.000000 -2.000000 -2.000000
v 1.333333 -4.000000 -6.000000
v 4.000000 -4.000000 -6.000000
v 1.333333 -4.000000 -2.000000
v 4.000000 -4.000000 -2.000000
v 1.333333 0.000000 2.000000
v 4.000000 0.000000 2.000000
v 4.000000 -2.000000 2.000000
v 1.333333 -2.000000 2.000000
v 1.333333 -4.000000 2.000000
v 4.000000 -4.000000 2.000000
v 1.333333 0.000000 6.000000
v 4.000000 0.000000 6.000000
v 1.333333 -2.000000 6.000000
v 4.000000 -2.000000 6.000000
v 1.333333 -4.000000 6.000000
v 4.000000 -4.000000 6.000000
v -1.333333 0.000000 -6.000000
v -1.333333 0.000000 -2.000000
v -1.333333 -2.000000 -6.000000
v -1.333333 -4.000000 -6.000000
v -1.333333 -2.000000 -2.000000
v -1.333333 -4.000000 -2.000000
v -1.333333 0.000000 2.000000
v -1.333333 0.000000 6.000000
v -1.333333 -2.000000 2.000000
v -1.333333 -4.000000 2.000000
v -1.333333 -2.000000 6.000000
v -1.333333 -4.000000 6.000000
v -4.000000 0.000000 -6.000000
v -4.000000 0.000000 -2.000000
v -4.000000 -2.000000 -6.000000
v -4.000000 -2.000000 -2.000000
v -4.000000 -4.000000 -6.000000
v -4.000000 -4.000000 -2.000000
v -4.000000 0.000000 2.000000
v -4.000000 -2.000000 2.000000
v -4.000000 -4.000000 2.000000
v -4.000000 0.000000 6.000000
v -4.000000 -2.000000 6.000000
v -4.000000 -4.000000 6.000000
vn 1.0000 -0.0000 -0.0000
vn -1.0000 -0.0000 -0.0000
vn -0.0000 -0.0000 -1.0000
vn -0.0000 -0.0000 1.0000
vn -0.0000 -1.0000 -0.0000
vn -0.0000 1.0000 -0.0000
vt 0.594112 0.541600
vt 0.594112 0.604100
vt 0.469112 0.604100
vt 0.469112 0.541600
vt 0.899682 0.463705
vt 0.899682 0.613705
vt 0.824682 0.613705
vt 0.824682 0.463705
vt 1.000000 0.000000
vt 1.000000 1.000000
vt 0.000000 1.000000
vt 0.000000 0.000000
vt 0.833534 0.200172
vt 0.896034 0.200172
vt 0.896034 0.283505
vt 0.833534 0.283505
vt 0.594112 0.479100
vt 0.469112 0.479100
vt 0.000000 0.000000
vt 1.000000 0.000000
vt 1.000000 1.000000
vt 0.000000 1.000000
vt 0.594112 0.395767
vt 0.469112 0.395767
vt 0.500000 1.207107
vt -0.207107 0.500000
vt 0.500000 -0.207107
vt 1.207107 0.500000
vt 0.344112 0.541600
vt 0.344112 0.479100
vt 0.175723 0.109305
vt 0.175723 0.259305
vt 0.100723 0.259305
vt 0.100723 0.109305
vt 0.708534 0.200172
vt 0.708534 0.283505
vt 0.344112 0.395767
vt 0.344112 0.604100
vt 0.219112 0.604100
vt 0.219112 0.541600
vt 0.896034 0.299568
vt 0.896034 0.449568
vt 0.821034 0.449568
vt 0.821034 0.299568
vt 0.646034 0.283505
vt 0.646034 0.200172
vt 0.000000 0.000000
vt 1.000000 0.000000
vt 1.000000 1.000000
vt 0.000000 1.000000
vt 0.219112 0.479100
vt 0.219112 0.395767
vt 0.175723 0.359305
vt 0.100723 0.359305
vt 0.724682 0.613705
vt 0.724682 0.463705
vt 0.594112 0.312434
vt 0.469112 0.312434
vt 0.175723 0.509305
vt 0.175723 0.609305
vt 0.100723 0.609305
vt 0.100723 0.509305
vt 0.721034 0.449568
vt 0.721034 0.299568
vt 0.344112 0.312434
vt 0.219112 0.312434
vt 0.649682 0.613705
vt 0.649682 0.463705
vt 0.469112 0.104100
vt 0.594112 0.104100
vt 0.594112 0.166600
vt 0.469112 0.166600
vt 0.710966 0.178944
vt 0.648466 0.178944
vt 0.648466 0.095610
vt 0.710966 0.095610
vt 0.594112 0.229100
vt 0.469112 0.229100
vt 0.344112 0.166600
vt 0.344112 0.229100
vt 0.835966 0.178944
vt 0.835966 0.095610
vt 0.646034 0.449568
vt 0.646034 0.299568
vt 0.219112 0.104100
vt 0.344112 0.104100
vt 0.219112 0.166600
vt 0.898466 0.095610
vt 0.898466 0.178944
vt 0.219112 0.229100
s 1
usemtl Material_Multi_Bridge
f 6/1/1 2/2/1 4/3/1 8/4/1
f 3/5/2 1/6/2 5/7/2 7/8/2
f 1/9/3 2/10/3 6/11/3 5/12/3
f 8/13/4 4/14/4 3/15/4 7/16/4
f 10/17/1 6/1/1 8/4/1 12/18/1
f 5/19/3 6/20/3 10/21/3 9/22/3
f 9/23/5 10/17/5 12/18/5 11/24/5
f 12/18/1 8/4/1 15/29/1 18/30/1
f 16/31/2 7/32/2 11/33/2 17/34/2
f 15/35/6 8/13/6 7/16/6 16/36/6
f 11/24/5 12/18/5 18/30/5 17/37/5
f 15/29/1 14/38/1 20/39/1 22/40/1
f 19/41/2 13/42/2 16/43/2 21/44/2
f 13/45/3 14/46/3 15/35/3 16/36/3
f 22/47/4 20/48/4 19/49/4 21/50/4
f 18/30/1 15/29/1 22/40/1 24/51/1
f 24/22/4 22/19/4 21/20/4 23/21/4
f 17/37/5 18/30/5 24/51/5 23/52/5
f 27/19/3 5/20/3 9/21/3 28/22/3
f 11/33/4 7/32/4 29/53/4 30/54/4
f 7/8/6 5/7/6 27/55/6 29/56/6
f 28/57/5 9/23/5 11/24/5 30/58/5
f 33/59/3 16/60/3 17/61/3 34/62/3
f 23/22/4 21/19/4 35/20/4 36/21/4
f 21/44/6 16/43/6 33/63/6 35/64/6
f 34/65/5 17/37/5 23/52/5 36/66/5
f 27/55/1 25/67/1 26/68/1 29/56/1
f 38/69/2 37/70/2 39/71/2 40/72/2
f 37/48/3 25/49/3 27/50/3 39/47/3
f 29/73/4 26/74/4 38/75/4 40/76/4
f 40/72/2 39/71/2 41/77/2 42/78/2
f 39/19/3 27/20/3 28/21/3 41/22/3
f 41/77/5 28/57/5 30/58/5 42/78/5
f 30/54/1 29/53/1 33/59/1 34/62/1
f 44/79/2 40/72/2 42/78/2 45/80/2
f 33/81/6 29/73/6 40/76/6 44/82/6
f 42/78/5 30/58/5 34/65/5 45/80/5
f 33/63/1 31/83/1 32/84/1 35/64/1
f 46/85/2 43/86/2 44/79/2 47/87/2
f 43/88/3 31/89/3 33/81/3 44/82/3
f 35/12/4 32/9/4 46/10/4 47/11/4
f 47/87/2 44/79/2 45/80/2 48/90/2
f 36/22/4 35/19/4 47/20/4 48/21/4
f 45/80/5 34/65/5 36/66/5 48/90/5
usemtl Material_Multi_Slope_Base
f 26/25/6 25/26/6 37/27/6 38/28/6
f 3/28/6 4/25/6 2/26/6 1/27/6
f 19/28/6 20/25/6 14/26/6 13/27/6
f 32/25/6 31/26/6 43/27/6 46/28/6
