# Blender 4.3.0
# www.blender.org
mtllib Cylinder.mtl
o Cylinder
v -0.250000 -0.628318 0.271306
v 0.250000 -0.628318 0.271306
v -0.250000 -0.601107 0.282577
v 0.250000 -0.601107 0.282577
v -0.250000 -0.572923 0.291126
v 0.250000 -0.572923 0.291126
v -0.250000 -0.544037 0.296872
v 0.250000 -0.544037 0.296872
v -0.250000 -0.514726 0.299759
v 0.250000 -0.514726 0.299759
v -0.250000 -0.485274 0.299759
v 0.250000 -0.485274 0.299759
v -0.250000 -0.455963 0.296872
v 0.250000 -0.455963 0.296872
v -0.250000 -0.427077 0.291126
v 0.250000 -0.427077 0.291126
v -0.250000 -0.398893 0.282576
v 0.250000 -0.398892 0.282577
v -0.250000 -0.371682 0.271306
v 0.250000 -0.371682 0.271306
v -0.250000 -0.345707 0.257422
v 0.250000 -0.345707 0.257422
v -0.250000 -0.321219 0.241059
v 0.250000 -0.321219 0.241059
v -0.250000 -0.298452 0.222374
v 0.250000 -0.298451 0.222374
v -0.250000 -0.277626 0.201548
v 0.250000 -0.277625 0.201549
v -0.250000 -0.258941 0.178781
v 0.250000 -0.258941 0.178781
v -0.250000 -0.242578 0.154293
v 0.250000 -0.242578 0.154293
v -0.250000 -0.228694 0.128318
v 0.250000 -0.228694 0.128318
v -0.250000 -0.217424 0.101107
v 0.250000 -0.217424 0.101107
v -0.250000 -0.208874 0.072923
v 0.250000 -0.208874 0.072923
v -0.250000 -0.203128 0.044037
v 0.250000 -0.203128 0.044037
v -0.250000 -0.200241 0.014726
v 0.250000 -0.200241 0.014726
v -0.250000 -0.200241 -0.014726
v 0.250000 -0.200241 -0.014726
v -0.250000 -0.203128 -0.044037
v 0.250000 -0.203128 -0.044037
v -0.250000 -0.208874 -0.072923
v 0.250000 -0.208874 -0.072923
v -0.250000 -0.217424 -0.101108
v 0.250000 -0.217424 -0.101107
v -0.250000 -0.228695 -0.128318
v 0.250000 -0.228694 -0.128318
v -0.250000 -0.242578 -0.154293
v 0.250000 -0.242578 -0.154293
v -0.250000 -0.258941 -0.178781
v 0.250000 -0.258941 -0.178781
v -0.250000 -0.277626 -0.201549
v 0.250000 -0.277626 -0.201548
v -0.250000 -0.298452 -0.222374
v 0.250000 -0.298452 -0.222374
v -0.250000 -0.321219 -0.241059
v 0.250000 -0.321219 -0.241059
v -0.250000 -0.345707 -0.257422
v 0.250000 -0.345707 -0.257422
v -0.250000 -0.371682 -0.271306
v 0.250000 -0.371682 -0.271306
v -0.250000 -0.398893 -0.282577
v 0.250000 -0.398892 -0.282577
v -0.250000 -0.427077 -0.291126
v 0.250000 -0.427077 -0.291126
v -0.250000 -0.455963 -0.296872
v 0.250000 -0.455963 -0.296872
v -0.250000 -0.485274 -0.299759
v 0.250000 -0.485274 -0.299759
v -0.250000 -0.514726 -0.299759
v 0.250000 -0.514726 -0.299759
v -0.250000 -0.544037 -0.296872
v 0.250000 -0.544037 -0.296872
v -0.250000 -0.572923 -0.291126
v 0.250000 -0.572923 -0.291126
v -0.250000 -0.601107 -0.282577
v 0.250000 -0.601107 -0.282576
v -0.250000 -0.628318 -0.271306
v 0.250000 -0.628318 -0.271306
v -0.250000 -0.654293 -0.257422
v 0.250000 -0.654293 -0.257422
v -0.250000 -0.678781 -0.241059
v 0.250000 -0.678781 -0.241059
v -0.250000 -0.701548 -0.222374
v 0.250000 -0.701548 -0.222374
v -0.250000 -0.722375 -0.201549
v 0.250000 -0.722374 -0.201548
v -0.250000 -0.741059 -0.178781
v 0.250000 -0.741059 -0.178781
v -0.250000 -0.757422 -0.154293
v 0.250000 -0.757422 -0.154293
v -0.250000 -0.771306 -0.128318
v 0.250000 -0.771305 -0.128318
v -0.250000 -0.782576 -0.101107
v 0.250000 -0.782576 -0.101107
v -0.250000 -0.791126 -0.072923
v 0.250000 -0.791126 -0.072923
v -0.250000 -0.796872 -0.044037
v 0.250000 -0.796872 -0.044037
v -0.250000 -0.799759 -0.014726
v 0.250000 -0.799759 -0.014726
v -0.250000 -0.799759 0.014726
v 0.250000 -0.799759 0.014726
v -0.250000 -0.796872 0.044037
v 0.250000 -0.796872 0.044037
v -0.250000 -0.791126 0.072923
v 0.250000 -0.791126 0.072923
v -0.250000 -0.782576 0.101107
v 0.250000 -0.782576 0.101107
v -0.250000 -0.771306 0.128318
v 0.250000 -0.771305 0.128318
v -0.250000 -0.757422 0.154293
v 0.250000 -0.757422 0.154293
v -0.250000 -0.741059 0.178781
v 0.250000 -0.741059 0.178781
v -0.250000 -0.722374 0.201548
v 0.250000 -0.722374 0.201549
v -0.250000 -0.701548 0.222374
v 0.250000 -0.701548 0.222374
v -0.250000 -0.678782 0.241059
v 0.250000 -0.678781 0.241059
v -0.250000 -0.654293 0.257422
v 0.250000 -0.654293 0.257422
v -0.250000 -0.714035 0.452540
v -0.250000 -0.668648 0.471340
v 0.250000 -0.668648 0.471340
v 0.250000 -0.714035 0.452540
v -0.250000 -0.621637 0.485601
v 0.250000 -0.621637 0.485601
v -0.250000 -0.573454 0.495185
v 0.250000 -0.573454 0.495185
v -0.250000 -0.524563 0.500000
v 0.250000 -0.524563 0.500000
v -0.250000 -0.475437 0.500000
v 0.250000 -0.475437 0.500000
v -0.250000 -0.426546 0.495185
v 0.250000 -0.426546 0.495185
v -0.250000 -0.378363 0.485601
v 0.250000 -0.378363 0.485601
v -0.250000 -0.331352 0.471340
v 0.250000 -0.331352 0.471340
v -0.250000 -0.285965 0.452540
v 0.250000 -0.285965 0.452540
v -0.250000 -0.242639 0.429382
v 0.250000 -0.242639 0.429382
v -0.250000 -0.201791 0.402088
v 0.250000 -0.201791 0.402088
v -0.250000 -0.163816 0.370922
v 0.250000 -0.163816 0.370922
v -0.250000 -0.129078 0.336184
v 0.250000 -0.129078 0.336184
v -0.250000 -0.097912 0.298209
v 0.250000 -0.097912 0.298209
v -0.250000 -0.070619 0.257361
v 0.250000 -0.070618 0.257361
v -0.250000 -0.047460 0.214035
v 0.250000 -0.047460 0.214035
v -0.250000 -0.028660 0.168648
v 0.250000 -0.028660 0.168648
v -0.250000 -0.014399 0.121637
v 0.250000 -0.014399 0.121637
v -0.250000 -0.004815 0.073454
v 0.250000 -0.004815 0.073454
v -0.250000 -0.000000 0.024563
v 0.250000 0.000000 0.024563
v -0.250000 -0.000000 -0.024563
v 0.250000 0.000000 -0.024563
v -0.250000 -0.004815 -0.073454
v 0.250000 -0.004815 -0.073454
v -0.250000 -0.014399 -0.121637
v 0.250000 -0.014399 -0.121637
v -0.250000 -0.028660 -0.168648
v 0.250000 -0.028660 -0.168648
v -0.250000 -0.047460 -0.214035
v 0.250000 -0.047460 -0.214035
v -0.250000 -0.070619 -0.257361
v 0.250000 -0.070618 -0.257361
v -0.250000 -0.097912 -0.298209
v 0.250000 -0.097912 -0.298209
v -0.250000 -0.129078 -0.336184
v 0.250000 -0.129078 -0.336184
v -0.250000 -0.163816 -0.370922
v 0.250000 -0.163816 -0.370922
v -0.250000 -0.201791 -0.402088
v 0.250000 -0.201791 -0.402088
v -0.250000 -0.242639 -0.429382
v 0.250000 -0.242639 -0.429382
v -0.250000 -0.285965 -0.452540
v 0.250000 -0.285965 -0.452540
v -0.250000 -0.331352 -0.471340
v 0.250000 -0.331352 -0.471340
v -0.250000 -0.378363 -0.485601
v 0.250000 -0.378363 -0.485601
v -0.250000 -0.426546 -0.495185
v 0.250000 -0.426546 -0.495185
v -0.250000 -0.475437 -0.500000
v 0.250000 -0.475437 -0.500000
v -0.250000 -0.524563 -0.500000
v 0.250000 -0.524563 -0.500000
v -0.250000 -0.573454 -0.495185
v 0.250000 -0.573454 -0.495185
v -0.250000 -0.621637 -0.485601
v 0.250000 -0.621637 -0.485601
v -0.250000 -0.668648 -0.471340
v 0.250000 -0.668648 -0.471340
v -0.250000 -0.714035 -0.452540
v 0.250000 -0.714035 -0.452540
v -0.250000 -0.757361 -0.429382
v 0.250000 -0.757361 -0.429382
v -0.250000 -0.798209 -0.402088
v 0.250000 -0.798209 -0.402088
v -0.250000 -0.836184 -0.370922
v 0.250000 -0.836184 -0.370922
v -0.250000 -0.870922 -0.336184
v 0.250000 -0.870922 -0.336184
v -0.250000 -0.902088 -0.298209
v 0.250000 -0.902088 -0.298209
v -0.250000 -0.929381 -0.257361
v 0.250000 -0.929381 -0.257361
v -0.250000 -0.952540 -0.214035
v 0.250000 -0.952540 -0.214035
v -0.250000 -0.971340 -0.168648
v 0.250000 -0.971340 -0.168648
v -0.250000 -0.985601 -0.121637
v 0.250000 -0.985600 -0.121637
v -0.250000 -0.995185 -0.073454
v 0.250000 -0.995185 -0.073454
v -0.250000 -1.000000 -0.024563
v 0.250000 -1.000000 -0.024563
v -0.250000 -1.000000 0.024563
v 0.250000 -1.000000 0.024563
v -0.250000 -0.995185 0.073454
v 0.250000 -0.995185 0.073454
v -0.250000 -0.985601 0.121637
v 0.250000 -0.985600 0.121637
v -0.250000 -0.971340 0.168648
v 0.250000 -0.971340 0.168648
v -0.250000 -0.952540 0.214035
v 0.250000 -0.952540 0.214035
v -0.250000 -0.929381 0.257361
v 0.250000 -0.929381 0.257361
v -0.250000 -0.902088 0.298209
v 0.250000 -0.902088 0.298209
v -0.250000 -0.870922 0.336184
v 0.250000 -0.870922 0.336184
v -0.250000 -0.836184 0.370922
v 0.250000 -0.836184 0.370922
v -0.250000 -0.798209 0.402088
v 0.250000 -0.798209 0.402088
v -0.250000 -0.757361 0.429382
v 0.250000 -0.757361 0.429382
v -0.250000 -0.646134 0.408419
v -0.250000 -0.623621 0.345498
v -0.250000 -0.656890 0.331717
v -0.250000 -0.685463 0.392128
v -0.250000 -0.605399 0.420776
v -0.250000 -0.589161 0.355951
v -0.250000 -0.563648 0.429080
v -0.250000 -0.553842 0.362976
v -0.250000 -0.521284 0.433253
v -0.250000 -0.518005 0.366506
v -0.250000 -0.478716 0.433253
v -0.250000 -0.481995 0.366506
v -0.250000 -0.436352 0.429080
v -0.250000 -0.446158 0.362976
v -0.250000 -0.394601 0.420776
v -0.250000 -0.410839 0.355951
v -0.250000 -0.353866 0.408419
v -0.250000 -0.376379 0.345498
v -0.250000 -0.314537 0.392128
v -0.250000 -0.343110 0.331717
v -0.250000 -0.276995 0.372062
v -0.250000 -0.311351 0.314742
v -0.250000 -0.241600 0.348412
v -0.250000 -0.281409 0.294735
v -0.250000 -0.208694 0.321406
v -0.250000 -0.253573 0.271890
v -0.250000 -0.178594 0.291306
v -0.250000 -0.228110 0.246427
v -0.250000 -0.151588 0.258400
v -0.250000 -0.205265 0.218591
v -0.250000 -0.127938 0.223005
v -0.250000 -0.185258 0.188649
v -0.250000 -0.107872 0.185463
v -0.250000 -0.168283 0.156890
v -0.250000 -0.091581 0.146135
v -0.250000 -0.154502 0.123621
v -0.250000 -0.079224 0.105399
v -0.250000 -0.144049 0.089161
v -0.250000 -0.070920 0.063648
v -0.250000 -0.137024 0.053842
v -0.250000 -0.066747 0.021284
v -0.250000 -0.133494 0.018005
v -0.250000 -0.066747 -0.021284
v -0.250000 -0.133494 -0.018005
v -0.250000 -0.070920 -0.063648
v -0.250000 -0.137024 -0.053842
v -0.250000 -0.079224 -0.105399
v -0.250000 -0.144049 -0.089161
v -0.250000 -0.091581 -0.146135
v -0.250000 -0.154502 -0.123621
v -0.250000 -0.107872 -0.185463
v -0.250000 -0.168283 -0.156890
v -0.250000 -0.127938 -0.223005
v -0.250000 -0.185258 -0.188649
v -0.250000 -0.151588 -0.258400
v -0.250000 -0.205265 -0.218591
v -0.250000 -0.178594 -0.291306
v -0.250000 -0.228110 -0.246427
v -0.250000 -0.208694 -0.321406
v -0.250000 -0.253573 -0.271890
v -0.250000 -0.241600 -0.348412
v -0.250000 -0.281409 -0.294735
v -0.250000 -0.276995 -0.372062
v -0.250000 -0.311351 -0.314742
v -0.250000 -0.314537 -0.392128
v -0.250000 -0.343110 -0.331717
v -0.250000 -0.353865 -0.408419
v -0.250000 -0.376379 -0.345498
v -0.250000 -0.394601 -0.420776
v -0.250000 -0.410839 -0.355951
v -0.250000 -0.436352 -0.429080
v -0.250000 -0.446158 -0.362976
v -0.250000 -0.478716 -0.433253
v -0.250000 -0.481995 -0.366506
v -0.250000 -0.521284 -0.433253
v -0.250000 -0.518005 -0.366506
v -0.250000 -0.563648 -0.429080
v -0.250000 -0.553843 -0.362976
v -0.250000 -0.605399 -0.420776
v -0.250000 -0.589161 -0.355951
v -0.250000 -0.646134 -0.408419
v -0.250000 -0.623621 -0.345498
v -0.250000 -0.685463 -0.392128
v -0.250000 -0.656890 -0.331717
v -0.250000 -0.723005 -0.372062
v -0.250000 -0.688649 -0.314742
v -0.250000 -0.758400 -0.348412
v -0.250000 -0.718591 -0.294735
v -0.250000 -0.791306 -0.321406
v -0.250000 -0.746427 -0.271890
v -0.250000 -0.821406 -0.291306
v -0.250000 -0.771890 -0.246427
v -0.250000 -0.848412 -0.258400
v -0.250000 -0.794735 -0.218591
v -0.250000 -0.872062 -0.223005
v -0.250000 -0.814742 -0.188649
v -0.250000 -0.892128 -0.185463
v -0.250000 -0.831717 -0.156890
v -0.250000 -0.908419 -0.146135
v -0.250000 -0.845497 -0.123621
v -0.250000 -0.920776 -0.105399
v -0.250000 -0.855951 -0.089161
v -0.250000 -0.929080 -0.063648
v -0.250000 -0.862976 -0.053842
v -0.250000 -0.933253 -0.021284
v -0.250000 -0.866506 -0.018005
v -0.250000 -0.933253 0.021284
v -0.250000 -0.866506 0.018005
v -0.250000 -0.929080 0.063648
v -0.250000 -0.862976 0.053842
v -0.250000 -0.920776 0.105399
v -0.250000 -0.855951 0.089161
v -0.250000 -0.908419 0.146135
v -0.250000 -0.845497 0.123621
v -0.250000 -0.892128 0.185463
v -0.250000 -0.831717 0.156890
v -0.250000 -0.872062 0.223005
v -0.250000 -0.814742 0.188649
v -0.250000 -0.848412 0.258400
v -0.250000 -0.794735 0.218591
v -0.250000 -0.821406 0.291306
v -0.250000 -0.771890 0.246427
v -0.250000 -0.791306 0.321406
v -0.250000 -0.746427 0.271890
v -0.250000 -0.758400 0.348412
v -0.250000 -0.718591 0.294735
v -0.250000 -0.723005 0.372062
v -0.250000 -0.688649 0.314742
v 0.250000 -0.685463 0.392128
v 0.250000 -0.656890 0.331717
v 0.250000 -0.623621 0.345498
v 0.250000 -0.646134 0.408419
v 0.250000 -0.589161 0.355951
v 0.250000 -0.605399 0.420776
v 0.250000 -0.553842 0.362976
v 0.250000 -0.563648 0.429080
v 0.250000 -0.518005 0.366506
v 0.250000 -0.521284 0.433253
v 0.250000 -0.481995 0.366506
v 0.250000 -0.478716 0.433253
v 0.250000 -0.446157 0.362976
v 0.250000 -0.436352 0.429080
v 0.250000 -0.410839 0.355951
v 0.250000 -0.394601 0.420776
v 0.250000 -0.376379 0.345498
v 0.250000 -0.353865 0.408419
v 0.250000 -0.343110 0.331717
v 0.250000 -0.314537 0.392128
v 0.250000 -0.311351 0.314742
v 0.250000 -0.276995 0.372062
v 0.250000 -0.281409 0.294735
v 0.250000 -0.241600 0.348412
v 0.250000 -0.253573 0.271890
v 0.250000 -0.208694 0.321406
v 0.250000 -0.228110 0.246427
v 0.250000 -0.178594 0.291306
v 0.250000 -0.205265 0.218591
v 0.250000 -0.151588 0.258400
v 0.250000 -0.185258 0.188649
v 0.250000 -0.127938 0.223005
v 0.250000 -0.168283 0.156890
v 0.250000 -0.107872 0.185463
v 0.250000 -0.154502 0.123621
v 0.250000 -0.091581 0.146135
v 0.250000 -0.144049 0.089161
v 0.250000 -0.079224 0.105399
v 0.250000 -0.137024 0.053842
v 0.250000 -0.070920 0.063648
v 0.250000 -0.133494 0.018005
v 0.250000 -0.066747 0.021284
v 0.250000 -0.133494 -0.018005
v 0.250000 -0.066747 -0.021284
v 0.250000 -0.137024 -0.053842
v 0.250000 -0.070920 -0.063648
v 0.250000 -0.144049 -0.089161
v 0.250000 -0.079224 -0.105399
v 0.250000 -0.154502 -0.123621
v 0.250000 -0.091581 -0.146135
v 0.250000 -0.168283 -0.156890
v 0.250000 -0.107872 -0.185463
v 0.250000 -0.185258 -0.188649
v 0.250000 -0.127938 -0.223005
v 0.250000 -0.205265 -0.218591
v 0.250000 -0.151588 -0.258400
v 0.250000 -0.228110 -0.246427
v 0.250000 -0.178594 -0.291306
v 0.250000 -0.253573 -0.271890
v 0.250000 -0.208694 -0.321406
v 0.250000 -0.281409 -0.294735
v 0.250000 -0.241600 -0.348412
v 0.250000 -0.311351 -0.314742
v 0.250000 -0.276995 -0.372062
v 0.250000 -0.343110 -0.331717
v 0.250000 -0.314537 -0.392128
v 0.250000 -0.376379 -0.345498
v 0.250000 -0.353865 -0.408419
v 0.250000 -0.410839 -0.355951
v 0.250000 -0.394601 -0.420776
v 0.250000 -0.446158 -0.362976
v 0.250000 -0.436352 -0.429080
v 0.250000 -0.481995 -0.366506
v 0.250000 -0.478716 -0.433253
v 0.250000 -0.518005 -0.366506
v 0.250000 -0.521284 -0.433253
v 0.250000 -0.553842 -0.362976
v 0.250000 -0.563648 -0.429080
v 0.250000 -0.589161 -0.355951
v 0.250000 -0.605399 -0.420776
v 0.250000 -0.623621 -0.345498
v 0.250000 -0.646134 -0.408419
v 0.250000 -0.656890 -0.331717
v 0.250000 -0.685463 -0.392128
v 0.250000 -0.688649 -0.314742
v 0.250000 -0.723005 -0.372062
v 0.250000 -0.718590 -0.294735
v 0.250000 -0.758400 -0.348412
v 0.250000 -0.746427 -0.271890
v 0.250000 -0.791306 -0.321406
v 0.250000 -0.771890 -0.246427
v 0.250000 -0.821406 -0.291306
v 0.250000 -0.794735 -0.218591
v 0.250000 -0.848412 -0.258400
v 0.250000 -0.814742 -0.188649
v 0.250000 -0.872061 -0.223005
v 0.250000 -0.831717 -0.156890
v 0.250000 -0.892128 -0.185463
v 0.250000 -0.845497 -0.123621
v 0.250000 -0.908419 -0.146135
v 0.250000 -0.855951 -0.089161
v 0.250000 -0.920776 -0.105399
v 0.250000 -0.862976 -0.053842
v 0.250000 -0.929080 -0.063648
v 0.250000 -0.866506 -0.018005
v 0.250000 -0.933253 -0.021284
v 0.250000 -0.866506 0.018005
v 0.250000 -0.933253 0.021284
v 0.250000 -0.862976 0.053843
v 0.250000 -0.929080 0.063648
v 0.250000 -0.855951 0.089161
v 0.250000 -0.920776 0.105399
v 0.250000 -0.845497 0.123621
v 0.250000 -0.908419 0.146135
v 0.250000 -0.831717 0.156890
v 0.250000 -0.892128 0.185463
v 0.250000 -0.814742 0.188649
v 0.250000 -0.872062 0.223005
v 0.250000 -0.794735 0.218591
v 0.250000 -0.848412 0.258400
v 0.250000 -0.771890 0.246427
v 0.250000 -0.821406 0.291306
v 0.250000 -0.746427 0.271890
v 0.250000 -0.791306 0.321406
v 0.250000 -0.718591 0.294735
v 0.250000 -0.758400 0.348412
v 0.250000 -0.688649 0.314742
v 0.250000 -0.723005 0.372062
vn -0.0000 -0.4276 0.9040
vn -0.0000 -0.3369 0.9415
vn -0.0000 -0.2430 0.9700
vn -0.0000 -0.1467 0.9892
vn -0.0000 -0.0491 0.9988
vn -0.0000 0.0491 0.9988
vn -0.0000 0.1467 0.9892
vn -0.0000 0.2430 0.9700
vn -0.0000 0.3369 0.9415
vn -0.0000 0.4276 0.9040
vn -0.0000 0.5141 0.8577
vn -0.0000 0.5957 0.8032
vn -0.0000 0.6716 0.7410
vn -0.0000 0.7410 0.6716
vn -0.0000 0.8032 0.5957
vn -0.0000 0.8577 0.5141
vn -0.0000 0.9040 0.4276
vn -0.0000 0.9415 0.3369
vn -0.0000 0.9700 0.2430
vn -0.0000 0.9892 0.1467
vn -0.0000 0.9988 0.0491
vn -0.0000 0.9988 -0.0491
vn -0.0000 0.9892 -0.1467
vn -0.0000 0.9700 -0.2430
vn -0.0000 0.9415 -0.3369
vn -0.0000 0.9040 -0.4276
vn -0.0000 0.8577 -0.5141
vn -0.0000 0.8032 -0.5957
vn -0.0000 0.7410 -0.6716
vn -0.0000 0.6716 -0.7410
vn -0.0000 0.5957 -0.8032
vn -0.0000 0.5141 -0.8577
vn -0.0000 0.4276 -0.9040
vn -0.0000 0.3369 -0.9415
vn -0.0000 0.2430 -0.9700
vn -0.0000 0.1467 -0.9892
vn -0.0000 0.0491 -0.9988
vn -0.0000 -0.0491 -0.9988
vn -0.0000 -0.1467 -0.9892
vn -0.0000 -0.2430 -0.9700
vn -0.0000 -0.3369 -0.9415
vn -0.0000 -0.4276 -0.9040
vn -0.0000 -0.5141 -0.8577
vn -0.0000 -0.5957 -0.8032
vn -0.0000 -0.6716 -0.7410
vn -0.0000 -0.7410 -0.6716
vn -0.0000 -0.8032 -0.5957
vn -0.0000 -0.8577 -0.5141
vn -0.0000 -0.9040 -0.4276
vn -0.0000 -0.9415 -0.3369
vn -0.0000 -0.9700 -0.2430
vn -0.0000 -0.9892 -0.1467
vn -0.0000 -0.9988 -0.0491
vn -0.0000 -0.9988 0.0491
vn -0.0000 -0.9892 0.1467
vn -0.0000 -0.9700 0.2430
vn -0.0000 -0.9415 0.3369
vn -0.0000 -0.9040 0.4276
vn -0.0000 -0.8577 0.5141
vn -0.0000 -0.8032 0.5957
vn -0.0000 -0.7410 0.6716
vn -0.0000 -0.6716 0.7410
vn -0.0000 -0.5957 0.8032
vn -0.0000 -0.5141 0.8577
vn -1.0000 -0.0000 -0.0000
vn 1.0000 -0.0000 -0.0000
vt 0.579102 0.328125
vt 0.420898 0.328125
vt 0.420898 0.312500
vt 0.579102 0.312500
vt 0.420898 0.296875
vt 0.579102 0.296875
vt 0.420898 0.281250
vt 0.579102 0.281250
vt 0.420898 0.265625
vt 0.579102 0.265625
vt 0.420898 0.250000
vt 0.579102 0.250000
vt 0.420898 0.234375
vt 0.579102 0.234375
vt 0.420898 0.218750
vt 0.579102 0.218750
vt 0.420898 0.203125
vt 0.579102 0.203125
vt 0.420898 0.187500
vt 0.579102 0.187500
vt 0.420898 0.171875
vt 0.579102 0.171875
vt 0.420898 0.156250
vt 0.579102 0.156250
vt 0.420898 0.140625
vt 0.579102 0.140625
vt 0.420898 0.125000
vt 0.579102 0.125000
vt 0.420898 0.109375
vt 0.579102 0.109375
vt 0.420898 0.093750
vt 0.579102 0.093750
vt 0.420898 0.078125
vt 0.579102 0.078125
vt 0.420898 0.062500
vt 0.579102 0.062500
vt 0.420898 0.046875
vt 0.579102 0.046875
vt 0.420898 0.031250
vt 0.579102 0.031250
vt 0.420898 0.015625
vt 0.579102 0.015625
vt 0.420898 0.000000
vt 0.579102 0.000000
vt 0.579102 1.000000
vt 0.420898 1.000000
vt 0.420898 0.984375
vt 0.579102 0.984375
vt 0.420898 0.968750
vt 0.579102 0.968750
vt 0.420898 0.953125
vt 0.579102 0.953125
vt 0.420898 0.937500
vt 0.579102 0.937500
vt 0.420898 0.921875
vt 0.579102 0.921875
vt 0.420898 0.906250
vt 0.579102 0.906250
vt 0.420898 0.890625
vt 0.579102 0.890625
vt 0.420898 0.875000
vt 0.579102 0.875000
vt 0.420898 0.859375
vt 0.579102 0.859375
vt 0.420898 0.843750
vt 0.579102 0.843750
vt 0.420898 0.828125
vt 0.579102 0.828125
vt 0.420898 0.812500
vt 0.579102 0.812500
vt 0.420898 0.796875
vt 0.579102 0.796875
vt 0.420898 0.781250
vt 0.579102 0.781250
vt 0.420898 0.765625
vt 0.579102 0.765625
vt 0.420898 0.750000
vt 0.579102 0.750000
vt 0.420898 0.734375
vt 0.579102 0.734375
vt 0.420898 0.718750
vt 0.579102 0.718750
vt 0.420898 0.703125
vt 0.579102 0.703125
vt 0.420898 0.687500
vt 0.579102 0.687500
vt 0.420898 0.671875
vt 0.579102 0.671875
vt 0.420898 0.656250
vt 0.579102 0.656250
vt 0.420898 0.640625
vt 0.579102 0.640625
vt 0.420898 0.625000
vt 0.579102 0.625000
vt 0.420898 0.609375
vt 0.579102 0.609375
vt 0.420898 0.593750
vt 0.579102 0.593750
vt 0.420898 0.578125
vt 0.579102 0.578125
vt 0.420898 0.562500
vt 0.579102 0.562500
vt 0.420898 0.546875
vt 0.579102 0.546875
vt 0.420898 0.531250
vt 0.579102 0.531250
vt 0.420898 0.515625
vt 0.579102 0.515625
vt 0.420898 0.500000
vt 0.579102 0.500000
vt 0.420898 0.484375
vt 0.579102 0.484375
vt 0.420898 0.468750
vt 0.579102 0.468750
vt 0.420898 0.453125
vt 0.579102 0.453125
vt 0.420898 0.437500
vt 0.579102 0.437500
vt 0.420898 0.421875
vt 0.579102 0.421875
vt 0.420898 0.406250
vt 0.579102 0.406250
vt 0.420898 0.390625
vt 0.579102 0.390625
vt 0.420898 0.375000
vt 0.579102 0.375000
vt 0.420898 0.359375
vt 0.579102 0.359375
vt 0.227594 0.302421
vt 0.227594 0.297737
vt 0.307108 0.297737
vt 0.307108 0.302421
vt 0.420898 0.343750
vt 0.579102 0.343750
vt 0.227594 0.307104
vt 0.307108 0.307104
vt 0.815505 0.877798
vt 0.828014 0.872617
vt 0.837101 0.891831
vt 0.822666 0.897811
vt 0.895665 0.321732
vt 0.900847 0.309223
vt 0.920859 0.316384
vt 0.914880 0.330819
vt 0.802549 0.881729
vt 0.807714 0.902347
vt 0.904777 0.296267
vt 0.925395 0.301432
vt 0.789270 0.884370
vt 0.792389 0.905395
vt 0.907418 0.282988
vt 0.928443 0.286107
vt 0.775796 0.885697
vt 0.776839 0.906926
vt 0.908745 0.269514
vt 0.929974 0.270557
vt 0.762257 0.885697
vt 0.761214 0.906926
vt 0.908745 0.255975
vt 0.929974 0.254932
vt 0.748783 0.884370
vt 0.745664 0.905395
vt 0.907418 0.242501
vt 0.928443 0.239382
vt 0.735504 0.881729
vt 0.730340 0.902347
vt 0.904777 0.229222
vt 0.925395 0.224057
vt 0.722548 0.877799
vt 0.715387 0.897811
vt 0.900847 0.216266
vt 0.920859 0.209105
vt 0.710039 0.872617
vt 0.700952 0.891831
vt 0.895665 0.203757
vt 0.914880 0.194670
vt 0.698099 0.866235
vt 0.687172 0.884466
vt 0.889283 0.191817
vt 0.907514 0.180890
vt 0.686841 0.858713
vt 0.674180 0.875785
vt 0.881761 0.180559
vt 0.898833 0.167898
vt 0.676376 0.850124
vt 0.662102 0.865873
vt 0.873172 0.170093
vt 0.888921 0.155820
vt 0.666802 0.840550
vt 0.651053 0.854824
vt 0.863598 0.160520
vt 0.877872 0.144771
vt 0.658213 0.830084
vt 0.641141 0.842746
vt 0.853132 0.151931
vt 0.865794 0.134859
vt 0.650691 0.818827
vt 0.632460 0.829754
vt 0.841875 0.144409
vt 0.852802 0.126178
vt 0.644308 0.806887
vt 0.625094 0.815974
vt 0.829935 0.138026
vt 0.839022 0.118812
vt 0.639127 0.794378
vt 0.619115 0.801539
vt 0.817426 0.132845
vt 0.824587 0.112833
vt 0.635197 0.781422
vt 0.614579 0.786586
vt 0.804470 0.128915
vt 0.809634 0.108297
vt 0.632556 0.768143
vt 0.611531 0.771262
vt 0.791191 0.126274
vt 0.794309 0.105249
vt 0.631229 0.754669
vt 0.609999 0.755712
vt 0.777717 0.124946
vt 0.778760 0.103717
vt 0.631229 0.741130
vt 0.609999 0.740087
vt 0.764178 0.124946
vt 0.763135 0.103717
vt 0.632556 0.727656
vt 0.611531 0.724537
vt 0.750704 0.126274
vt 0.747585 0.105249
vt 0.635197 0.714377
vt 0.614579 0.709212
vt 0.737425 0.128915
vt 0.732260 0.108297
vt 0.639127 0.701421
vt 0.619115 0.694260
vt 0.724468 0.132845
vt 0.717308 0.112833
vt 0.644308 0.688912
vt 0.625094 0.679824
vt 0.711960 0.138026
vt 0.702872 0.118812
vt 0.650691 0.676972
vt 0.632460 0.666044
vt 0.700019 0.144409
vt 0.689092 0.126178
vt 0.658213 0.665714
vt 0.641140 0.653053
vt 0.688762 0.151931
vt 0.676101 0.134859
vt 0.666802 0.655248
vt 0.651053 0.640974
vt 0.678296 0.160520
vt 0.664022 0.144771
vt 0.676375 0.645675
vt 0.662101 0.629926
vt 0.668723 0.170093
vt 0.652974 0.155820
vt 0.686841 0.637085
vt 0.674180 0.620013
vt 0.660133 0.180559
vt 0.643061 0.167898
vt 0.698099 0.629563
vt 0.687171 0.611333
vt 0.652611 0.191817
vt 0.634381 0.180890
vt 0.710039 0.623181
vt 0.700951 0.603967
vt 0.646229 0.203757
vt 0.627015 0.194670
vt 0.722548 0.618000
vt 0.715387 0.597988
vt 0.641048 0.216266
vt 0.621036 0.209105
vt 0.735504 0.614070
vt 0.730339 0.593452
vt 0.637118 0.229222
vt 0.616500 0.224057
vt 0.748783 0.611428
vt 0.745664 0.590403
vt 0.634476 0.242501
vt 0.613452 0.239382
vt 0.762257 0.610101
vt 0.761214 0.588872
vt 0.633149 0.255975
vt 0.611920 0.254932
vt 0.775796 0.610101
vt 0.776839 0.588872
vt 0.633149 0.269514
vt 0.611920 0.270557
vt 0.789270 0.611428
vt 0.792389 0.590403
vt 0.634476 0.282988
vt 0.613452 0.286107
vt 0.802549 0.614070
vt 0.807713 0.593452
vt 0.637118 0.296267
vt 0.616500 0.301432
vt 0.815505 0.618000
vt 0.822666 0.597987
vt 0.641048 0.309223
vt 0.621036 0.316384
vt 0.828014 0.623181
vt 0.837101 0.603967
vt 0.646229 0.321732
vt 0.627015 0.330819
vt 0.839954 0.629563
vt 0.850881 0.611332
vt 0.652611 0.333672
vt 0.634381 0.344599
vt 0.851212 0.637085
vt 0.863873 0.620013
vt 0.660133 0.344930
vt 0.643061 0.357591
vt 0.861678 0.645674
vt 0.875951 0.629926
vt 0.668723 0.355396
vt 0.652974 0.369669
vt 0.871251 0.655248
vt 0.887000 0.640974
vt 0.678296 0.364969
vt 0.664022 0.380718
vt 0.879840 0.665714
vt 0.896912 0.653052
vt 0.688762 0.373558
vt 0.676100 0.390630
vt 0.887362 0.676971
vt 0.905593 0.666044
vt 0.700019 0.381080
vt 0.689092 0.399311
vt 0.893745 0.688912
vt 0.912959 0.679824
vt 0.711960 0.387463
vt 0.702872 0.406677
vt 0.898926 0.701420
vt 0.918938 0.694260
vt 0.724468 0.392644
vt 0.717308 0.412656
vt 0.902856 0.714377
vt 0.923474 0.709212
vt 0.737425 0.396574
vt 0.732260 0.417192
vt 0.905497 0.727656
vt 0.926522 0.724537
vt 0.750704 0.399215
vt 0.747585 0.420240
vt 0.906825 0.741130
vt 0.928054 0.740087
vt 0.764178 0.400543
vt 0.763135 0.421772
vt 0.906825 0.754669
vt 0.928054 0.755712
vt 0.777717 0.400543
vt 0.778760 0.421772
vt 0.905497 0.768143
vt 0.926522 0.771261
vt 0.791191 0.399216
vt 0.794309 0.420240
vt 0.902856 0.781422
vt 0.923474 0.786586
vt 0.804470 0.396574
vt 0.809634 0.417192
vt 0.898926 0.794378
vt 0.918938 0.801538
vt 0.817426 0.392644
vt 0.824587 0.412656
vt 0.893745 0.806886
vt 0.912959 0.815974
vt 0.829935 0.387463
vt 0.839022 0.406677
vt 0.887362 0.818827
vt 0.905593 0.829754
vt 0.841875 0.381080
vt 0.852802 0.399311
vt 0.879840 0.830084
vt 0.896912 0.842746
vt 0.853132 0.373558
vt 0.865794 0.390630
vt 0.871251 0.840550
vt 0.887000 0.854824
vt 0.863598 0.364969
vt 0.877872 0.380718
vt 0.861678 0.850124
vt 0.875952 0.865873
vt 0.873172 0.355396
vt 0.888921 0.369669
vt 0.851212 0.858713
vt 0.863873 0.875785
vt 0.881761 0.344930
vt 0.898833 0.357591
vt 0.839954 0.866235
vt 0.850881 0.884466
vt 0.889283 0.333672
vt 0.907514 0.344599
vt 0.227594 0.293053
vt 0.307108 0.293053
vt 0.227594 0.288369
vt 0.307108 0.288369
vt 0.227594 0.283686
vt 0.307108 0.283686
vt 0.227594 0.279002
vt 0.307108 0.279002
vt 0.227594 0.274318
vt 0.307108 0.274318
vt 0.227594 0.269634
vt 0.307108 0.269634
vt 0.227594 0.264951
vt 0.307108 0.264951
vt 0.227594 0.260267
vt 0.307108 0.260267
vt 0.227594 0.255583
vt 0.307108 0.255583
vt 0.227594 0.250899
vt 0.307108 0.250899
vt 0.227594 0.246216
vt 0.307108 0.246216
vt 0.227594 0.241532
vt 0.307108 0.241532
vt 0.227594 0.236848
vt 0.307108 0.236848
vt 0.227594 0.232165
vt 0.307108 0.232165
vt 0.227594 0.227481
vt 0.307108 0.227481
vt 0.227594 0.222797
vt 0.307108 0.222797
vt 0.227594 0.218113
vt 0.307108 0.218113
vt 0.227594 0.213430
vt 0.307108 0.213430
vt 0.227594 0.208746
vt 0.307108 0.208746
vt 0.227594 0.204062
vt 0.307108 0.204062
vt 0.227594 0.199378
vt 0.307108 0.199378
vt 0.227594 0.194695
vt 0.307108 0.194695
vt 0.227594 0.190011
vt 0.307108 0.190011
vt 0.227594 0.185327
vt 0.307108 0.185327
vt 0.227594 0.180643
vt 0.307108 0.180643
vt 0.227594 0.175960
vt 0.307108 0.175960
vt 0.227594 0.171276
vt 0.307108 0.171276
vt 0.227594 0.166592
vt 0.307108 0.166592
vt 0.227594 0.161909
vt 0.307108 0.161909
vt 0.227594 0.157225
vt 0.307108 0.157225
vt 0.227594 0.152541
vt 0.307108 0.152541
vt 0.227594 0.147857
vt 0.307108 0.147857
vt 0.227594 0.143174
vt 0.307108 0.143174
vt 0.227594 0.138490
vt 0.307108 0.138490
vt 0.227594 0.133806
vt 0.307108 0.133806
vt 0.227594 0.129122
vt 0.307108 0.129122
vt 0.227594 0.124439
vt 0.307108 0.124439
vt 0.227594 0.119755
vt 0.307108 0.119755
vt 0.227594 0.115071
vt 0.307108 0.115071
vt 0.227594 0.110387
vt 0.307108 0.110387
vt 0.227594 0.105704
vt 0.307108 0.105704
vt 0.227594 0.405463
vt 0.227594 0.400779
vt 0.307108 0.400779
vt 0.307108 0.405463
vt 0.227594 0.396095
vt 0.307108 0.396095
vt 0.227594 0.391412
vt 0.307108 0.391412
vt 0.227594 0.386728
vt 0.307108 0.386728
vt 0.227594 0.382044
vt 0.307108 0.382044
vt 0.227594 0.377360
vt 0.307108 0.377360
vt 0.227594 0.372677
vt 0.307108 0.372677
vt 0.227594 0.367993
vt 0.307108 0.367993
vt 0.227594 0.363309
vt 0.307108 0.363309
vt 0.227594 0.358625
vt 0.307108 0.358625
vt 0.227594 0.353942
vt 0.307108 0.353942
vt 0.227594 0.349258
vt 0.307108 0.349258
vt 0.227594 0.344574
vt 0.307108 0.344574
vt 0.227594 0.339890
vt 0.307108 0.339890
vt 0.227594 0.335207
vt 0.307108 0.335207
vt 0.227594 0.330523
vt 0.307108 0.330523
vt 0.227594 0.325839
vt 0.307108 0.325839
vt 0.227594 0.321156
vt 0.307108 0.321156
vt 0.227594 0.316472
vt 0.307108 0.316472
vt 0.227594 0.311788
vt 0.307108 0.311788
vt 0.809839 0.834189
vt 0.818100 0.829773
vt 0.829027 0.848004
vt 0.818926 0.853403
vt 0.825889 0.824569
vt 0.838550 0.841641
vt 0.833130 0.818626
vt 0.847404 0.834375
vt 0.839754 0.812003
vt 0.855502 0.826276
vt 0.845696 0.804761
vt 0.862768 0.817423
vt 0.850901 0.796973
vt 0.869132 0.807900
vt 0.855316 0.788711
vt 0.874531 0.797799
vt 0.858901 0.780057
vt 0.878914 0.787217
vt 0.861620 0.771093
vt 0.882238 0.776257
vt 0.863448 0.761905
vt 0.884473 0.765024
vt 0.864366 0.752583
vt 0.885595 0.753626
vt 0.864366 0.743215
vt 0.885595 0.742172
vt 0.863448 0.733893
vt 0.884473 0.730774
vt 0.861620 0.724706
vt 0.882238 0.719541
vt 0.858901 0.715741
vt 0.878914 0.708581
vt 0.855316 0.707087
vt 0.874531 0.697999
vt 0.850901 0.698826
vt 0.869131 0.687898
vt 0.845696 0.691037
vt 0.862768 0.678375
vt 0.839754 0.683796
vt 0.855502 0.669522
vt 0.833130 0.677172
vt 0.847404 0.661423
vt 0.825889 0.671229
vt 0.838550 0.654157
vt 0.818100 0.666025
vt 0.829027 0.647794
vt 0.809839 0.661609
vt 0.818926 0.642395
vt 0.801184 0.658024
vt 0.808345 0.638012
vt 0.792220 0.655305
vt 0.797385 0.634687
vt 0.783033 0.653478
vt 0.786151 0.632453
vt 0.773710 0.652560
vt 0.774753 0.631330
vt 0.764343 0.652560
vt 0.763300 0.631330
vt 0.755020 0.653478
vt 0.751902 0.632453
vt 0.745833 0.655305
vt 0.740668 0.634687
vt 0.736869 0.658025
vt 0.729708 0.638012
vt 0.728214 0.661609
vt 0.719127 0.642395
vt 0.719953 0.666025
vt 0.709026 0.647794
vt 0.712164 0.671229
vt 0.699503 0.654157
vt 0.704923 0.677172
vt 0.690649 0.661423
vt 0.698299 0.683796
vt 0.682550 0.669522
vt 0.692357 0.691037
vt 0.675285 0.678376
vt 0.687152 0.698826
vt 0.668921 0.687899
vt 0.682737 0.707087
vt 0.663522 0.698000
vt 0.679152 0.715742
vt 0.659140 0.708581
vt 0.676433 0.724706
vt 0.655815 0.719541
vt 0.674605 0.733893
vt 0.653580 0.730774
vt 0.673687 0.743216
vt 0.652458 0.742173
vt 0.673687 0.752583
vt 0.652458 0.753626
vt 0.674605 0.761905
vt 0.653580 0.765024
vt 0.676433 0.771093
vt 0.655815 0.776257
vt 0.679152 0.780057
vt 0.659140 0.787217
vt 0.682737 0.788711
vt 0.663523 0.797799
vt 0.687152 0.796973
vt 0.668922 0.807900
vt 0.692357 0.804761
vt 0.675285 0.817423
vt 0.698299 0.812003
vt 0.682551 0.826276
vt 0.704923 0.818626
vt 0.690649 0.834375
vt 0.712164 0.824569
vt 0.699503 0.841641
vt 0.719953 0.829773
vt 0.709026 0.848004
vt 0.728215 0.834189
vt 0.719127 0.853403
vt 0.736869 0.837774
vt 0.729708 0.857786
vt 0.745833 0.840493
vt 0.740669 0.861111
vt 0.755020 0.842321
vt 0.751902 0.863345
vt 0.764343 0.843239
vt 0.763300 0.864468
vt 0.773710 0.843239
vt 0.774753 0.864468
vt 0.783033 0.842321
vt 0.786151 0.863345
vt 0.792220 0.840493
vt 0.797385 0.861111
vt 0.801184 0.837774
vt 0.808345 0.857786
vt 0.765221 0.379313
vt 0.776674 0.379313
vt 0.852821 0.311818
vt 0.857237 0.303557
vt 0.876451 0.312644
vt 0.871052 0.322745
vt 0.847617 0.319607
vt 0.864689 0.332268
vt 0.841675 0.326848
vt 0.857423 0.341122
vt 0.835051 0.333472
vt 0.849325 0.349220
vt 0.827810 0.339414
vt 0.840471 0.356486
vt 0.820021 0.344619
vt 0.830948 0.362850
vt 0.811759 0.349034
vt 0.820847 0.368249
vt 0.803105 0.352619
vt 0.810265 0.372632
vt 0.794141 0.355338
vt 0.799305 0.375956
vt 0.784953 0.357166
vt 0.788072 0.378191
vt 0.775631 0.358084
vt 0.766263 0.358084
vt 0.756941 0.357166
vt 0.753822 0.378191
vt 0.747754 0.355338
vt 0.742589 0.375956
vt 0.738790 0.352619
vt 0.731629 0.372632
vt 0.730135 0.349034
vt 0.721048 0.368249
vt 0.721874 0.344619
vt 0.710947 0.362849
vt 0.714085 0.339414
vt 0.701424 0.356486
vt 0.706844 0.333472
vt 0.692570 0.349220
vt 0.700220 0.326848
vt 0.684471 0.341122
vt 0.694277 0.319607
vt 0.677205 0.332268
vt 0.689073 0.311818
vt 0.670842 0.322745
vt 0.684657 0.303557
vt 0.665443 0.312644
vt 0.681073 0.294902
vt 0.661060 0.302063
vt 0.678353 0.285938
vt 0.657735 0.291103
vt 0.676526 0.276751
vt 0.655501 0.279869
vt 0.675608 0.267428
vt 0.654378 0.268471
vt 0.675608 0.258061
vt 0.654378 0.257018
vt 0.676526 0.248738
vt 0.655501 0.245620
vt 0.678353 0.239551
vt 0.657735 0.234386
vt 0.681073 0.230587
vt 0.661060 0.223426
vt 0.684657 0.221932
vt 0.665443 0.212845
vt 0.689073 0.213671
vt 0.670842 0.202744
vt 0.694277 0.205882
vt 0.677205 0.193221
vt 0.700220 0.198641
vt 0.684471 0.184367
vt 0.706844 0.192017
vt 0.692570 0.176269
vt 0.714085 0.186075
vt 0.701424 0.169003
vt 0.721874 0.180870
vt 0.710947 0.162640
vt 0.730135 0.176455
vt 0.721048 0.157240
vt 0.738790 0.172870
vt 0.731629 0.152857
vt 0.747754 0.170151
vt 0.742589 0.149533
vt 0.756941 0.168323
vt 0.753822 0.147298
vt 0.766263 0.167405
vt 0.765221 0.146176
vt 0.775631 0.167405
vt 0.776674 0.146176
vt 0.784953 0.168323
vt 0.788072 0.147298
vt 0.794141 0.170151
vt 0.799305 0.149533
vt 0.803105 0.172870
vt 0.810265 0.152857
vt 0.811759 0.176455
vt 0.820847 0.157240
vt 0.820021 0.180870
vt 0.830948 0.162640
vt 0.827809 0.186075
vt 0.840471 0.169003
vt 0.835051 0.192017
vt 0.849325 0.176269
vt 0.841674 0.198641
vt 0.857423 0.184367
vt 0.847617 0.205882
vt 0.864689 0.193221
vt 0.852821 0.213671
vt 0.871052 0.202744
vt 0.857237 0.221932
vt 0.876451 0.212845
vt 0.860822 0.230587
vt 0.880834 0.223426
vt 0.863541 0.239551
vt 0.884159 0.234386
vt 0.865369 0.248738
vt 0.886393 0.245620
vt 0.866287 0.258061
vt 0.887516 0.257018
vt 0.866287 0.267428
vt 0.887516 0.268471
vt 0.865369 0.276751
vt 0.886393 0.279869
vt 0.863541 0.285938
vt 0.884159 0.291103
vt 0.860822 0.294902
vt 0.880834 0.302063
s 1
usemtl Material_Multi_Cylinder
f 129/1/1 132/2/1 131/3/2 130/4/2
f 130/4/2 131/3/2 134/5/3 133/6/3
f 133/6/3 134/5/3 136/7/4 135/8/4
f 135/8/4 136/7/4 138/9/5 137/10/5
f 137/10/5 138/9/5 140/11/6 139/12/6
f 139/12/6 140/11/6 142/13/7 141/14/7
f 141/14/7 142/13/7 144/15/8 143/16/8
f 143/16/8 144/15/8 146/17/9 145/18/9
f 145/18/9 146/17/9 148/19/10 147/20/10
f 147/20/10 148/19/10 150/21/11 149/22/11
f 149/22/11 150/21/11 152/23/12 151/24/12
f 151/24/12 152/23/12 154/25/13 153/26/13
f 153/26/13 154/25/13 156/27/14 155/28/14
f 155/28/14 156/27/14 158/29/15 157/30/15
f 157/30/15 158/29/15 160/31/16 159/32/16
f 159/32/16 160/31/16 162/33/17 161/34/17
f 161/34/17 162/33/17 164/35/18 163/36/18
f 163/36/18 164/35/18 166/37/19 165/38/19
f 165/38/19 166/37/19 168/39/20 167/40/20
f 167/40/20 168/39/20 170/41/21 169/42/21
f 169/42/21 170/41/21 172/43/22 171/44/22
f 171/45/22 172/46/22 174/47/23 173/48/23
f 173/48/23 174/47/23 176/49/24 175/50/24
f 175/50/24 176/49/24 178/51/25 177/52/25
f 177/52/25 178/51/25 180/53/26 179/54/26
f 179/54/26 180/53/26 182/55/27 181/56/27
f 181/56/27 182/55/27 184/57/28 183/58/28
f 183/58/28 184/57/28 186/59/29 185/60/29
f 185/60/29 186/59/29 188/61/30 187/62/30
f 187/62/30 188/61/30 190/63/31 189/64/31
f 189/64/31 190/63/31 192/65/32 191/66/32
f 191/66/32 192/65/32 194/67/33 193/68/33
f 193/68/33 194/67/33 196/69/34 195/70/34
f 195/70/34 196/69/34 198/71/35 197/72/35
f 197/72/35 198/71/35 200/73/36 199/74/36
f 199/74/36 200/73/36 202/75/37 201/76/37
f 201/76/37 202/75/37 204/77/38 203/78/38
f 203/78/38 204/77/38 206/79/39 205/80/39
f 205/80/39 206/79/39 208/81/40 207/82/40
f 207/82/40 208/81/40 210/83/41 209/84/41
f 209/84/41 210/83/41 212/85/42 211/86/42
f 211/86/42 212/85/42 214/87/43 213/88/43
f 213/88/43 214/87/43 216/89/44 215/90/44
f 215/90/44 216/89/44 218/91/45 217/92/45
f 217/92/45 218/91/45 220/93/46 219/94/46
f 219/94/46 220/93/46 222/95/47 221/96/47
f 221/96/47 222/95/47 224/97/48 223/98/48
f 223/98/48 224/97/48 226/99/49 225/100/49
f 225/100/49 226/99/49 228/101/50 227/102/50
f 227/102/50 228/101/50 230/103/51 229/104/51
f 229/104/51 230/103/51 232/105/52 231/106/52
f 231/106/52 232/105/52 234/107/53 233/108/53
f 233/108/53 234/107/53 236/109/54 235/110/54
f 235/110/54 236/109/54 238/111/55 237/112/55
f 237/112/55 238/111/55 240/113/56 239/114/56
f 239/114/56 240/113/56 242/115/57 241/116/57
f 241/116/57 242/115/57 244/117/58 243/118/58
f 243/118/58 244/117/58 246/119/59 245/120/59
f 245/120/59 246/119/59 248/121/60 247/122/60
f 247/122/60 248/121/60 250/123/61 249/124/61
f 249/124/61 250/123/61 252/125/62 251/126/62
f 251/126/62 252/125/62 254/127/63 253/128/63
f 128/129/32 126/130/31 125/131/31 127/132/32
f 253/128/63 254/127/63 256/133/64 255/134/64
f 255/134/64 256/133/64 132/2/1 129/1/1
f 2/135/33 128/129/32 127/132/32 1/136/33
f 257/137/65 260/138/65 129/139/65 130/140/65
f 385/141/66 388/142/66 131/143/66 132/144/66
f 261/145/65 257/137/65 130/140/65 133/146/65
f 388/142/66 390/147/66 134/148/66 131/143/66
f 263/149/65 261/145/65 133/146/65 135/150/65
f 390/147/66 392/151/66 136/152/66 134/148/66
f 265/153/65 263/149/65 135/150/65 137/154/65
f 392/151/66 394/155/66 138/156/66 136/152/66
f 267/157/65 265/153/65 137/154/65 139/158/65
f 394/155/66 396/159/66 140/160/66 138/156/66
f 269/161/65 267/157/65 139/158/65 141/162/65
f 396/159/66 398/163/66 142/164/66 140/160/66
f 271/165/65 269/161/65 141/162/65 143/166/65
f 398/163/66 400/167/66 144/168/66 142/164/66
f 273/169/65 271/165/65 143/166/65 145/170/65
f 400/167/66 402/171/66 146/172/66 144/168/66
f 275/173/65 273/169/65 145/170/65 147/174/65
f 402/171/66 404/175/66 148/176/66 146/172/66
f 277/177/65 275/173/65 147/174/65 149/178/65
f 404/175/66 406/179/66 150/180/66 148/176/66
f 279/181/65 277/177/65 149/178/65 151/182/65
f 406/179/66 408/183/66 152/184/66 150/180/66
f 281/185/65 279/181/65 151/182/65 153/186/65
f 408/183/66 410/187/66 154/188/66 152/184/66
f 283/189/65 281/185/65 153/186/65 155/190/65
f 410/187/66 412/191/66 156/192/66 154/188/66
f 285/193/65 283/189/65 155/190/65 157/194/65
f 412/191/66 414/195/66 158/196/66 156/192/66
f 287/197/65 285/193/65 157/194/65 159/198/65
f 414/195/66 416/199/66 160/200/66 158/196/66
f 289/201/65 287/197/65 159/198/65 161/202/65
f 416/199/66 418/203/66 162/204/66 160/200/66
f 291/205/65 289/201/65 161/202/65 163/206/65
f 418/203/66 420/207/66 164/208/66 162/204/66
f 293/209/65 291/205/65 163/206/65 165/210/65
f 420/207/66 422/211/66 166/212/66 164/208/66
f 295/213/65 293/209/65 165/210/65 167/214/65
f 422/211/66 424/215/66 168/216/66 166/212/66
f 297/217/65 295/213/65 167/214/65 169/218/65
f 424/215/66 426/219/66 170/220/66 168/216/66
f 299/221/65 297/217/65 169/218/65 171/222/65
f 426/219/66 428/223/66 172/224/66 170/220/66
f 301/225/65 299/221/65 171/222/65 173/226/65
f 428/223/66 430/227/66 174/228/66 172/224/66
f 303/229/65 301/225/65 173/226/65 175/230/65
f 430/227/66 432/231/66 176/232/66 174/228/66
f 305/233/65 303/229/65 175/230/65 177/234/65
f 432/231/66 434/235/66 178/236/66 176/232/66
f 307/237/65 305/233/65 177/234/65 179/238/65
f 434/235/66 436/239/66 180/240/66 178/236/66
f 309/241/65 307/237/65 179/238/65 181/242/65
f 436/239/66 438/243/66 182/244/66 180/240/66
f 311/245/65 309/241/65 181/242/65 183/246/65
f 438/243/66 440/247/66 184/248/66 182/244/66
f 313/249/65 311/245/65 183/246/65 185/250/65
f 440/247/66 442/251/66 186/252/66 184/248/66
f 315/253/65 313/249/65 185/250/65 187/254/65
f 442/251/66 444/255/66 188/256/66 186/252/66
f 317/257/65 315/253/65 187/254/65 189/258/65
f 444/255/66 446/259/66 190/260/66 188/256/66
f 319/261/65 317/257/65 189/258/65 191/262/65
f 446/259/66 448/263/66 192/264/66 190/260/66
f 321/265/65 319/261/65 191/262/65 193/266/65
f 448/263/66 450/267/66 194/268/66 192/264/66
f 323/269/65 321/265/65 193/266/65 195/270/65
f 450/267/66 452/271/66 196/272/66 194/268/66
f 325/273/65 323/269/65 195/270/65 197/274/65
f 452/271/66 454/275/66 198/276/66 196/272/66
f 327/277/65 325/273/65 197/274/65 199/278/65
f 454/275/66 456/279/66 200/280/66 198/276/66
f 329/281/65 327/277/65 199/278/65 201/282/65
f 456/279/66 458/283/66 202/284/66 200/280/66
f 331/285/65 329/281/65 201/282/65 203/286/65
f 458/283/66 460/287/66 204/288/66 202/284/66
f 333/289/65 331/285/65 203/286/65 205/290/65
f 460/287/66 462/291/66 206/292/66 204/288/66
f 335/293/65 333/289/65 205/290/65 207/294/65
f 462/291/66 464/295/66 208/296/66 206/292/66
f 337/297/65 335/293/65 207/294/65 209/298/65
f 464/295/66 466/299/66 210/300/66 208/296/66
f 339/301/65 337/297/65 209/298/65 211/302/65
f 466/299/66 468/303/66 212/304/66 210/300/66
f 341/305/65 339/301/65 211/302/65 213/306/65
f 468/303/66 470/307/66 214/308/66 212/304/66
f 343/309/65 341/305/65 213/306/65 215/310/65
f 470/307/66 472/311/66 216/312/66 214/308/66
f 345/313/65 343/309/65 215/310/65 217/314/65
f 472/311/66 474/315/66 218/316/66 216/312/66
f 347/317/65 345/313/65 217/314/65 219/318/65
f 474/315/66 476/319/66 220/320/66 218/316/66
f 349/321/65 347/317/65 219/318/65 221/322/65
f 476/319/66 478/323/66 222/324/66 220/320/66
f 351/325/65 349/321/65 221/322/65 223/326/65
f 478/323/66 480/327/66 224/328/66 222/324/66
f 353/329/65 351/325/65 223/326/65 225/330/65
f 480/327/66 482/331/66 226/332/66 224/328/66
f 355/333/65 353/329/65 225/330/65 227/334/65
f 482/331/66 484/335/66 228/336/66 226/332/66
f 357/337/65 355/333/65 227/334/65 229/338/65
f 484/335/66 486/339/66 230/340/66 228/336/66
f 359/341/65 357/337/65 229/338/65 231/342/65
f 486/339/66 488/343/66 232/344/66 230/340/66
f 361/345/65 359/341/65 231/342/65 233/346/65
f 488/343/66 490/347/66 234/348/66 232/344/66
f 363/349/65 361/345/65 233/346/65 235/350/65
f 490/347/66 492/351/66 236/352/66 234/348/66
f 365/353/65 363/349/65 235/350/65 237/354/65
f 492/351/66 494/355/66 238/356/66 236/352/66
f 367/357/65 365/353/65 237/354/65 239/358/65
f 494/355/66 496/359/66 240/360/66 238/356/66
f 369/361/65 367/357/65 239/358/65 241/362/65
f 496/359/66 498/363/66 242/364/66 240/360/66
f 371/365/65 369/361/65 241/362/65 243/366/65
f 498/363/66 500/367/66 244/368/66 242/364/66
f 373/369/65 371/365/65 243/366/65 245/370/65
f 500/367/66 502/371/66 246/372/66 244/368/66
f 375/373/65 373/369/65 245/370/65 247/374/65
f 502/371/66 504/375/66 248/376/66 246/372/66
f 377/377/65 375/373/65 247/374/65 249/378/65
f 504/375/66 506/379/66 250/380/66 248/376/66
f 379/381/65 377/377/65 249/378/65 251/382/65
f 506/379/66 508/383/66 252/384/66 250/380/66
f 381/385/65 379/381/65 251/382/65 253/386/65
f 508/383/66 510/387/66 254/388/66 252/384/66
f 383/389/65 381/385/65 253/386/65 255/390/65
f 510/387/66 512/391/66 256/392/66 254/388/66
f 260/138/65 383/389/65 255/390/65 129/139/65
f 512/391/66 385/141/66 132/144/66 256/392/66
f 126/130/31 124/393/30 123/394/30 125/131/31
f 124/393/30 122/395/29 121/396/29 123/394/30
f 122/395/29 120/397/28 119/398/28 121/396/29
f 120/397/28 118/399/27 117/400/27 119/398/28
f 118/399/27 116/401/26 115/402/26 117/400/27
f 116/401/26 114/403/25 113/404/25 115/402/26
f 114/403/25 112/405/24 111/406/24 113/404/25
f 112/405/24 110/407/23 109/408/23 111/406/24
f 110/407/23 108/409/22 107/410/22 109/408/23
f 108/409/22 106/411/21 105/412/21 107/410/22
f 106/411/21 104/413/20 103/414/20 105/412/21
f 104/413/20 102/415/19 101/416/19 103/414/20
f 102/415/19 100/417/18 99/418/18 101/416/19
f 100/417/18 98/419/17 97/420/17 99/418/18
f 98/419/17 96/421/16 95/422/16 97/420/17
f 96/421/16 94/423/15 93/424/15 95/422/16
f 94/423/15 92/425/14 91/426/14 93/424/15
f 92/425/14 90/427/13 89/428/13 91/426/14
f 90/427/13 88/429/12 87/430/12 89/428/13
f 88/429/12 86/431/11 85/432/11 87/430/12
f 86/431/11 84/433/10 83/434/10 85/432/11
f 84/433/10 82/435/9 81/436/9 83/434/10
f 82/435/9 80/437/8 79/438/8 81/436/9
f 80/437/8 78/439/7 77/440/7 79/438/8
f 78/439/7 76/441/6 75/442/6 77/440/7
f 76/441/6 74/443/5 73/444/5 75/442/6
f 74/443/5 72/445/4 71/446/4 73/444/5
f 72/445/4 70/447/3 69/448/3 71/446/4
f 70/447/3 68/449/2 67/450/2 69/448/3
f 68/449/2 66/451/1 65/452/1 67/450/2
f 66/451/1 64/453/64 63/454/64 65/452/1
f 64/453/64 62/455/63 61/456/63 63/454/64
f 62/455/63 60/457/62 59/458/62 61/456/63
f 60/457/62 58/459/61 57/460/61 59/458/62
f 58/459/61 56/461/60 55/462/60 57/460/61
f 56/461/60 54/463/59 53/464/59 55/462/60
f 54/463/59 52/465/58 51/466/58 53/464/59
f 52/465/58 50/467/57 49/468/57 51/466/58
f 50/467/57 48/469/56 47/470/56 49/468/57
f 48/469/56 46/471/55 45/472/55 47/470/56
f 46/471/55 44/473/54 43/474/54 45/472/55
f 44/475/54 42/476/53 41/477/53 43/478/54
f 42/476/53 40/479/52 39/480/52 41/477/53
f 40/479/52 38/481/51 37/482/51 39/480/52
f 38/481/51 36/483/50 35/484/50 37/482/51
f 36/483/50 34/485/49 33/486/49 35/484/50
f 34/485/49 32/487/48 31/488/48 33/486/49
f 32/487/48 30/489/47 29/490/47 31/488/48
f 30/489/47 28/491/46 27/492/46 29/490/47
f 28/491/46 26/493/45 25/494/45 27/492/46
f 26/493/45 24/495/44 23/496/44 25/494/45
f 24/495/44 22/497/43 21/498/43 23/496/44
f 22/497/43 20/499/42 19/500/42 21/498/43
f 20/499/42 18/501/41 17/502/41 19/500/42
f 18/501/41 16/503/40 15/504/40 17/502/41
f 16/503/40 14/505/39 13/506/39 15/504/40
f 14/505/39 12/507/38 11/508/38 13/506/39
f 12/507/38 10/509/37 9/510/37 11/508/38
f 10/509/37 8/511/36 7/512/36 9/510/37
f 8/511/36 6/513/35 5/514/35 7/512/36
f 6/513/35 4/515/34 3/516/34 5/514/35
f 4/515/34 2/135/33 1/136/33 3/516/34
f 1/517/65 127/518/65 384/519/65 259/520/65
f 259/520/65 384/519/65 383/389/65 260/138/65
f 127/518/65 125/521/65 382/522/65 384/519/65
f 384/519/65 382/522/65 381/385/65 383/389/65
f 125/521/65 123/523/65 380/524/65 382/522/65
f 382/522/65 380/524/65 379/381/65 381/385/65
f 123/523/65 121/525/65 378/526/65 380/524/65
f 380/524/65 378/526/65 377/377/65 379/381/65
f 121/525/65 119/527/65 376/528/65 378/526/65
f 378/526/65 376/528/65 375/373/65 377/377/65
f 119/527/65 117/529/65 374/530/65 376/528/65
f 376/528/65 374/530/65 373/369/65 375/373/65
f 117/529/65 115/531/65 372/532/65 374/530/65
f 374/530/65 372/532/65 371/365/65 373/369/65
f 115/531/65 113/533/65 370/534/65 372/532/65
f 372/532/65 370/534/65 369/361/65 371/365/65
f 113/533/65 111/535/65 368/536/65 370/534/65
f 370/534/65 368/536/65 367/357/65 369/361/65
f 111/535/65 109/537/65 366/538/65 368/536/65
f 368/536/65 366/538/65 365/353/65 367/357/65
f 109/537/65 107/539/65 364/540/65 366/538/65
f 366/538/65 364/540/65 363/349/65 365/353/65
f 107/539/65 105/541/65 362/542/65 364/540/65
f 105/541/65 103/543/65 360/544/65 362/542/65
f 362/542/65 360/544/65 359/341/65 361/345/65
f 103/543/65 101/545/65 358/546/65 360/544/65
f 360/544/65 358/546/65 357/337/65 359/341/65
f 101/545/65 99/547/65 356/548/65 358/546/65
f 358/546/65 356/548/65 355/333/65 357/337/65
f 99/547/65 97/549/65 354/550/65 356/548/65
f 356/548/65 354/550/65 353/329/65 355/333/65
f 97/549/65 95/551/65 352/552/65 354/550/65
f 354/550/65 352/552/65 351/325/65 353/329/65
f 95/551/65 93/553/65 350/554/65 352/552/65
f 352/552/65 350/554/65 349/321/65 351/325/65
f 93/553/65 91/555/65 348/556/65 350/554/65
f 350/554/65 348/556/65 347/317/65 349/321/65
f 91/555/65 89/557/65 346/558/65 348/556/65
f 348/556/65 346/558/65 345/313/65 347/317/65
f 89/557/65 87/559/65 344/560/65 346/558/65
f 346/558/65 344/560/65 343/309/65 345/313/65
f 87/559/65 85/561/65 342/562/65 344/560/65
f 344/560/65 342/562/65 341/305/65 343/309/65
f 85/561/65 83/563/65 340/564/65 342/562/65
f 342/562/65 340/564/65 339/301/65 341/305/65
f 83/563/65 81/565/65 338/566/65 340/564/65
f 340/564/65 338/566/65 337/297/65 339/301/65
f 81/565/65 79/567/65 336/568/65 338/566/65
f 338/566/65 336/568/65 335/293/65 337/297/65
f 79/567/65 77/569/65 334/570/65 336/568/65
f 336/568/65 334/570/65 333/289/65 335/293/65
f 77/569/65 75/571/65 332/572/65 334/570/65
f 334/570/65 332/572/65 331/285/65 333/289/65
f 75/571/65 73/573/65 330/574/65 332/572/65
f 332/572/65 330/574/65 329/281/65 331/285/65
f 73/573/65 71/575/65 328/576/65 330/574/65
f 330/574/65 328/576/65 327/277/65 329/281/65
f 71/575/65 69/577/65 326/578/65 328/576/65
f 328/576/65 326/578/65 325/273/65 327/277/65
f 69/577/65 67/579/65 324/580/65 326/578/65
f 326/578/65 324/580/65 323/269/65 325/273/65
f 67/579/65 65/581/65 322/582/65 324/580/65
f 324/580/65 322/582/65 321/265/65 323/269/65
f 65/581/65 63/583/65 320/584/65 322/582/65
f 322/582/65 320/584/65 319/261/65 321/265/65
f 63/583/65 61/585/65 318/586/65 320/584/65
f 320/584/65 318/586/65 317/257/65 319/261/65
f 61/585/65 59/587/65 316/588/65 318/586/65
f 318/586/65 316/588/65 315/253/65 317/257/65
f 59/587/65 57/589/65 314/590/65 316/588/65
f 316/588/65 314/590/65 313/249/65 315/253/65
f 57/589/65 55/591/65 312/592/65 314/590/65
f 314/590/65 312/592/65 311/245/65 313/249/65
f 55/591/65 53/593/65 310/594/65 312/592/65
f 312/592/65 310/594/65 309/241/65 311/245/65
f 53/593/65 51/595/65 308/596/65 310/594/65
f 310/594/65 308/596/65 307/237/65 309/241/65
f 51/595/65 49/597/65 306/598/65 308/596/65
f 308/596/65 306/598/65 305/233/65 307/237/65
f 49/597/65 47/599/65 304/600/65 306/598/65
f 306/598/65 304/600/65 303/229/65 305/233/65
f 47/599/65 45/601/65 302/602/65 304/600/65
f 304/600/65 302/602/65 301/225/65 303/229/65
f 45/601/65 43/603/65 300/604/65 302/602/65
f 302/602/65 300/604/65 299/221/65 301/225/65
f 43/603/65 41/605/65 298/606/65 300/604/65
f 300/604/65 298/606/65 297/217/65 299/221/65
f 41/605/65 39/607/65 296/608/65 298/606/65
f 298/606/65 296/608/65 295/213/65 297/217/65
f 39/607/65 37/609/65 294/610/65 296/608/65
f 296/608/65 294/610/65 293/209/65 295/213/65
f 37/609/65 35/611/65 292/612/65 294/610/65
f 294/610/65 292/612/65 291/205/65 293/209/65
f 35/611/65 33/613/65 290/614/65 292/612/65
f 292/612/65 290/614/65 289/201/65 291/205/65
f 33/613/65 31/615/65 288/616/65 290/614/65
f 290/614/65 288/616/65 287/197/65 289/201/65
f 31/615/65 29/617/65 286/618/65 288/616/65
f 288/616/65 286/618/65 285/193/65 287/197/65
f 29/617/65 27/619/65 284/620/65 286/618/65
f 286/618/65 284/620/65 283/189/65 285/193/65
f 27/619/65 25/621/65 282/622/65 284/620/65
f 284/620/65 282/622/65 281/185/65 283/189/65
f 25/621/65 23/623/65 280/624/65 282/622/65
f 282/622/65 280/624/65 279/181/65 281/185/65
f 23/623/65 21/625/65 278/626/65 280/624/65
f 280/624/65 278/626/65 277/177/65 279/181/65
f 21/625/65 19/627/65 276/628/65 278/626/65
f 278/626/65 276/628/65 275/173/65 277/177/65
f 19/627/65 17/629/65 274/630/65 276/628/65
f 276/628/65 274/630/65 273/169/65 275/173/65
f 17/629/65 15/631/65 272/632/65 274/630/65
f 274/630/65 272/632/65 271/165/65 273/169/65
f 15/631/65 13/633/65 270/634/65 272/632/65
f 272/632/65 270/634/65 269/161/65 271/165/65
f 13/633/65 11/635/65 268/636/65 270/634/65
f 270/634/65 268/636/65 267/157/65 269/161/65
f 11/635/65 9/637/65 266/638/65 268/636/65
f 268/636/65 266/638/65 265/153/65 267/157/65
f 9/637/65 7/639/65 264/640/65 266/638/65
f 266/638/65 264/640/65 263/149/65 265/153/65
f 7/639/65 5/641/65 262/642/65 264/640/65
f 264/640/65 262/642/65 261/145/65 263/149/65
f 5/641/65 3/643/65 258/644/65 262/642/65
f 262/642/65 258/644/65 257/137/65 261/145/65
f 3/643/65 1/517/65 259/520/65 258/644/65
f 258/644/65 259/520/65 260/138/65 257/137/65
f 490/347/66 489/645/66 491/646/66 492/351/66
f 362/542/65 361/345/65 363/349/65 364/540/65
f 128/647/66 2/648/66 386/649/66 511/650/66
f 511/650/66 386/649/66 385/141/66 512/391/66
f 126/651/66 128/647/66 511/650/66 509/652/66
f 509/652/66 511/650/66 512/391/66 510/387/66
f 124/653/66 126/651/66 509/652/66 507/654/66
f 507/654/66 509/652/66 510/387/66 508/383/66
f 122/655/66 124/653/66 507/654/66 505/656/66
f 505/656/66 507/654/66 508/383/66 506/379/66
f 120/657/66 122/655/66 505/656/66 503/658/66
f 503/658/66 505/656/66 506/379/66 504/375/66
f 118/659/66 120/657/66 503/658/66 501/660/66
f 501/660/66 503/658/66 504/375/66 502/371/66
f 116/661/66 118/659/66 501/660/66 499/662/66
f 499/662/66 501/660/66 502/371/66 500/367/66
f 114/663/66 116/661/66 499/662/66 497/664/66
f 497/664/66 499/662/66 500/367/66 498/363/66
f 112/665/66 114/663/66 497/664/66 495/666/66
f 495/666/66 497/664/66 498/363/66 496/359/66
f 110/667/66 112/665/66 495/666/66 493/668/66
f 493/668/66 495/666/66 496/359/66 494/355/66
f 108/669/66 110/667/66 493/668/66 491/646/66
f 491/646/66 493/668/66 494/355/66 492/351/66
f 106/670/66 108/669/66 491/646/66 489/645/66
f 104/671/66 106/670/66 489/645/66 487/672/66
f 487/672/66 489/645/66 490/347/66 488/343/66
f 102/673/66 104/671/66 487/672/66 485/674/66
f 485/674/66 487/672/66 488/343/66 486/339/66
f 100/675/66 102/673/66 485/674/66 483/676/66
f 483/676/66 485/674/66 486/339/66 484/335/66
f 98/677/66 100/675/66 483/676/66 481/678/66
f 481/678/66 483/676/66 484/335/66 482/331/66
f 96/679/66 98/677/66 481/678/66 479/680/66
f 479/680/66 481/678/66 482/331/66 480/327/66
f 94/681/66 96/679/66 479/680/66 477/682/66
f 477/682/66 479/680/66 480/327/66 478/323/66
f 92/683/66 94/681/66 477/682/66 475/684/66
f 475/684/66 477/682/66 478/323/66 476/319/66
f 90/685/66 92/683/66 475/684/66 473/686/66
f 473/686/66 475/684/66 476/319/66 474/315/66
f 88/687/66 90/685/66 473/686/66 471/688/66
f 471/688/66 473/686/66 474/315/66 472/311/66
f 86/689/66 88/687/66 471/688/66 469/690/66
f 469/690/66 471/688/66 472/311/66 470/307/66
f 84/691/66 86/689/66 469/690/66 467/692/66
f 467/692/66 469/690/66 470/307/66 468/303/66
f 82/693/66 84/691/66 467/692/66 465/694/66
f 465/694/66 467/692/66 468/303/66 466/299/66
f 80/695/66 82/693/66 465/694/66 463/696/66
f 463/696/66 465/694/66 466/299/66 464/295/66
f 78/697/66 80/695/66 463/696/66 461/698/66
f 461/698/66 463/696/66 464/295/66 462/291/66
f 76/699/66 78/697/66 461/698/66 459/700/66
f 459/700/66 461/698/66 462/291/66 460/287/66
f 74/701/66 76/699/66 459/700/66 457/702/66
f 457/702/66 459/700/66 460/287/66 458/283/66
f 72/703/66 74/701/66 457/702/66 455/704/66
f 455/704/66 457/702/66 458/283/66 456/279/66
f 70/705/66 72/703/66 455/704/66 453/706/66
f 453/706/66 455/704/66 456/279/66 454/275/66
f 68/707/66 70/705/66 453/706/66 451/708/66
f 451/708/66 453/706/66 454/275/66 452/271/66
f 66/709/66 68/707/66 451/708/66 449/710/66
f 449/710/66 451/708/66 452/271/66 450/267/66
f 64/711/66 66/709/66 449/710/66 447/712/66
f 447/712/66 449/710/66 450/267/66 448/263/66
f 62/713/66 64/711/66 447/712/66 445/714/66
f 445/714/66 447/712/66 448/263/66 446/259/66
f 60/715/66 62/713/66 445/714/66 443/716/66
f 443/716/66 445/714/66 446/259/66 444/255/66
f 58/717/66 60/715/66 443/716/66 441/718/66
f 441/718/66 443/716/66 444/255/66 442/251/66
f 56/719/66 58/717/66 441/718/66 439/720/66
f 439/720/66 441/718/66 442/251/66 440/247/66
f 54/721/66 56/719/66 439/720/66 437/722/66
f 437/722/66 439/720/66 440/247/66 438/243/66
f 52/723/66 54/721/66 437/722/66 435/724/66
f 435/724/66 437/722/66 438/243/66 436/239/66
f 50/725/66 52/723/66 435/724/66 433/726/66
f 433/726/66 435/724/66 436/239/66 434/235/66
f 48/727/66 50/725/66 433/726/66 431/728/66
f 431/728/66 433/726/66 434/235/66 432/231/66
f 46/729/66 48/727/66 431/728/66 429/730/66
f 429/730/66 431/728/66 432/231/66 430/227/66
f 44/731/66 46/729/66 429/730/66 427/732/66
f 427/732/66 429/730/66 430/227/66 428/223/66
f 42/733/66 44/731/66 427/732/66 425/734/66
f 425/734/66 427/732/66 428/223/66 426/219/66
f 40/735/66 42/733/66 425/734/66 423/736/66
f 423/736/66 425/734/66 426/219/66 424/215/66
f 38/737/66 40/735/66 423/736/66 421/738/66
f 421/738/66 423/736/66 424/215/66 422/211/66
f 36/739/66 38/737/66 421/738/66 419/740/66
f 419/740/66 421/738/66 422/211/66 420/207/66
f 34/741/66 36/739/66 419/740/66 417/742/66
f 417/742/66 419/740/66 420/207/66 418/203/66
f 32/743/66 34/741/66 417/742/66 415/744/66
f 415/744/66 417/742/66 418/203/66 416/199/66
f 30/745/66 32/743/66 415/744/66 413/746/66
f 413/746/66 415/744/66 416/199/66 414/195/66
f 28/747/66 30/745/66 413/746/66 411/748/66
f 411/748/66 413/746/66 414/195/66 412/191/66
f 26/749/66 28/747/66 411/748/66 409/750/66
f 409/750/66 411/748/66 412/191/66 410/187/66
f 24/751/66 26/749/66 409/750/66 407/752/66
f 407/752/66 409/750/66 410/187/66 408/183/66
f 22/753/66 24/751/66 407/752/66 405/754/66
f 405/754/66 407/752/66 408/183/66 406/179/66
f 20/755/66 22/753/66 405/754/66 403/756/66
f 403/756/66 405/754/66 406/179/66 404/175/66
f 18/757/66 20/755/66 403/756/66 401/758/66
f 401/758/66 403/756/66 404/175/66 402/171/66
f 16/759/66 18/757/66 401/758/66 399/760/66
f 399/760/66 401/758/66 402/171/66 400/167/66
f 14/761/66 16/759/66 399/760/66 397/762/66
f 397/762/66 399/760/66 400/167/66 398/163/66
f 12/763/66 14/761/66 397/762/66 395/764/66
f 395/764/66 397/762/66 398/163/66 396/159/66
f 10/765/66 12/763/66 395/764/66 393/766/66
f 393/766/66 395/764/66 396/159/66 394/155/66
f 8/767/66 10/765/66 393/766/66 391/768/66
f 391/768/66 393/766/66 394/155/66 392/151/66
f 6/769/66 8/767/66 391/768/66 389/770/66
f 389/770/66 391/768/66 392/151/66 390/147/66
f 4/771/66 6/769/66 389/770/66 387/772/66
f 387/772/66 389/770/66 390/147/66 388/142/66
f 2/648/66 4/771/66 387/772/66 386/649/66
f 386/649/66 387/772/66 388/142/66 385/141/66
