# Blender 4.3.0
# www.blender.org
mtllib Slope.mtl
o Slope
v -2.000000 0.000000 -2.000000
v -2.000000 -4.000000 -2.000000
v -2.000000 0.000000 2.000000
v -2.000000 -4.000000 2.000000
v 2.000000 0.000000 -2.000000
v 2.000000 -1.000000 -2.000000
v 2.000000 0.000000 2.000000
v 2.000000 -1.000000 2.000000
vn -1.0000 -0.0000 -0.0000
vn -0.0000 -0.0000 1.0000
vn 1.0000 -0.0000 -0.0000
vn -0.0000 -0.0000 -1.0000
vn -0.0000 1.0000 -0.0000
vn 0.6000 -0.8000 -0.0000
vt 0.567727 0.837726
vt 0.567727 0.946512
vt 0.458941 0.946512
vt 0.458941 0.837726
vt 0.350156 0.837726
vt 0.431745 0.728940
vt 0.458941 0.728940
vt 0.885118 -0.093029
vt 1.093030 0.885118
vt 0.114882 1.093029
vt -0.093030 0.114882
vt 0.567727 0.728940
vt 0.594923 0.728940
vt 0.676513 0.837726
vt 1.000000 0.000000
vt 1.000000 1.000000
vt 0.000000 1.000000
vt 0.000000 0.000000
s 1
usemtl Material_Multi_Slope_Face
f 1/1/1 2/2/1 4/3/1 3/4/1
f 3/4/2 4/5/2 8/6/2 7/7/2
f 5/12/4 6/13/4 2/14/4 1/1/4
f 3/4/5 7/7/5 5/12/5 1/1/5
f 8/15/6 4/16/6 2/17/6 6/18/6
usemtl Material_Multi_Slope_Base
f 7/8/3 8/9/3 6/10/3 5/11/3
