# Blender 4.3.0
# www.blender.org
mtllib T_Beam.mtl
o T_Beam
v -0.500000 -0.000000 2.000000
v -0.100000 -0.000000 2.000000
v 0.100000 -0.000000 2.000000
v 0.500000 -0.000000 2.000000
v 0.500000 -0.200000 2.000000
v 0.100000 -0.200000 2.000000
v 0.100000 -2.000000 2.000000
v -0.100000 -2.000000 2.000000
v -0.100000 -0.200000 2.000000
v -0.500000 -0.200000 2.000000
v -0.500000 0.000000 -2.000000
v -0.100000 0.000000 -2.000000
v 0.100000 0.000000 -2.000000
v 0.500000 0.000000 -2.000000
v 0.500000 -0.200000 -2.000000
v 0.100000 -0.200000 -2.000000
v 0.100000 -2.000000 -2.000000
v -0.100000 -2.000000 -2.000000
v -0.100000 -0.200000 -2.000000
v -0.500000 -0.200000 -2.000000
vn -0.0000 -0.0000 1.0000
vn -0.0000 -0.0000 -1.0000
vn -0.0000 1.0000 -0.0000
vn 1.0000 -0.0000 -0.0000
vn -0.0000 -1.0000 -0.0000
vn -1.0000 -0.0000 -0.0000
vt 0.400735 0.364472
vt 0.400735 0.339472
vt 0.459559 0.339472
vt 0.459559 0.364472
vt 0.488971 0.339472
vt 0.488971 0.364472
vt 0.547794 0.339472
vt 0.547794 0.364472
vt 0.459559 0.114472
vt 0.488971 0.114472
vt 0.547794 0.614472
vt 0.488971 0.614472
vt 0.488971 0.589472
vt 0.547794 0.589472
vt 0.459559 0.614472
vt 0.459559 0.589472
vt 0.400735 0.614472
vt 0.400735 0.589472
vt 0.341912 0.614472
vt 0.341912 0.114472
vt 0.400735 0.114472
vt 0.312500 0.614472
vt 0.312500 0.114472
vt 0.253677 0.614472
vt 0.253677 0.114472
vt 0.694853 0.114472
vt 0.724265 0.114472
vt 0.724265 0.614472
vt 0.694853 0.614472
vt 0.606618 0.614472
vt 0.547794 0.114472
vt 0.606618 0.114472
vt 1.000000 0.675000
vt 1.000000 1.125000
vt 0.000000 1.125000
vt 0.000000 0.675000
vt 0.753677 0.614472
vt 0.753677 0.114472
vt 0.000000 1.124609
vt 0.000000 0.675391
vt 1.000000 0.675391
vt 1.000000 1.124609
vt 0.665441 0.614472
vt 0.665441 0.114472
vt 0.665441 0.614472
s 1
usemtl Material_Multi_Beam
f 1/1/1 10/2/1 9/3/1 2/4/1
f 2/4/1 9/3/1 6/5/1 3/6/1
f 3/6/1 6/5/1 5/7/1 4/8/1
f 6/5/1 9/3/1 8/9/1 7/10/1
f 11/11/2 12/12/2 19/13/2 20/14/2
f 12/12/2 13/15/2 16/16/2 19/13/2
f 13/15/2 14/17/2 15/18/2 16/16/2
f 16/16/2 17/4/2 18/6/2 19/13/2
f 1/17/3 2/19/3 12/20/3 11/21/3
f 2/19/3 3/22/3 13/23/3 12/20/3
f 3/22/3 4/24/3 14/25/3 13/23/3
f 4/26/4 5/27/4 15/28/4 14/29/4
f 5/30/5 6/11/5 16/31/5 15/32/5
f 6/33/4 7/34/4 17/35/4 16/36/4
f 7/37/5 8/28/5 18/27/5 17/38/5
f 8/39/6 9/40/6 19/41/6 18/42/6
f 9/43/5 10/30/5 20/32/5 19/44/5
f 10/29/6 1/45/6 11/44/6 20/26/6
