# Blender 3.6.1
# www.blender.org
mtllib Vehicle_Base.mtl
o Vehicle_Base
v 0.200000 0.010000 0.900000
v -0.200000 0.010000 0.900000
v -0.200000 -0.010000 0.900000
v 0.200000 -0.010000 0.900000
v -0.200000 0.010000 -0.800000
v -0.200000 -0.010000 -0.800000
v 0.200000 -0.010000 0.850000
v -0.200000 -0.010000 0.850000
v -0.200000 0.010000 0.850000
v 0.200000 0.010000 0.850000
v 0.300000 -0.010000 0.900000
v 0.300000 0.010000 0.900000
v 0.300000 -0.010000 0.850000
v 0.300000 0.010000 0.850000
v -0.300000 -0.010000 0.900000
v -0.300000 0.010000 0.900000
v -0.300000 -0.010000 0.850000
v -0.300000 0.010000 0.850000
v 0.150000 0.010000 0.900000
v -0.150000 0.010000 0.900000
v -0.150000 -0.010000 0.900000
v 0.150000 -0.010000 0.900000
v -0.150000 0.010000 -0.800000
v 0.150000 0.010000 -0.800000
v 0.150000 0.010000 0.850000
v -0.150000 0.010000 0.850000
v -0.150000 -0.010000 0.850000
v 0.150000 0.010000 -0.750000
v -0.150000 0.010000 -0.750000
v 0.150000 -0.010000 -0.750000
v 0.150000 -0.010000 0.850000
v 0.150000 -0.010000 -0.800000
v -0.150000 -0.010000 -0.750000
v 0.200000 0.010000 -0.750000
v -0.200000 0.010000 -0.750000
v -0.200000 -0.010000 -0.750000
v -0.150000 -0.010000 -0.800000
v 0.150000 0.010000 0.525000
v 0.150000 0.010000 0.475000
v 0.150000 0.010000 -0.475000
v 0.150000 0.010000 -0.525000
v -0.150000 0.010000 0.525000
v -0.150000 0.010000 0.475000
v -0.150000 0.010000 -0.475000
v -0.150000 0.010000 -0.525000
v 0.200000 -0.010000 0.525000
v 0.200000 -0.010000 0.475000
v 0.200000 -0.010000 -0.475000
v 0.200000 -0.010000 -0.525000
v 0.200000 0.010000 0.525000
v 0.200000 0.010000 0.475000
v 0.200000 0.010000 -0.475000
v 0.200000 0.010000 -0.525000
v -0.200000 0.010000 0.525000
v -0.200000 0.010000 0.475000
v -0.200000 0.010000 -0.475000
v -0.200000 0.010000 -0.525000
v -0.200000 -0.010000 0.525000
v -0.200000 -0.010000 0.475000
v -0.200000 -0.010000 -0.475000
v -0.200000 -0.010000 -0.525000
v -0.150000 -0.010000 -0.525000
v -0.150000 -0.010000 -0.475000
v -0.150000 -0.010000 0.475000
v -0.150000 -0.010000 0.525000
v 0.150000 -0.010000 -0.525000
v 0.150000 -0.010000 -0.475000
v 0.150000 -0.010000 0.475000
v 0.150000 -0.010000 0.525000
v 0.200000 0.010000 -0.800000
v 0.200000 -0.010000 -0.800000
v 0.200000 -0.010000 -0.750000
v 0.050000 0.010000 0.525000
v -0.050000 0.010000 0.525000
v 0.050000 0.010000 0.475000
v -0.050000 0.010000 0.475000
v -0.050000 -0.010000 0.525000
v 0.050000 -0.010000 0.525000
v 0.050000 -0.010000 0.475000
v -0.050000 0.010000 -0.475000
v 0.050000 0.010000 -0.525000
v -0.050000 0.010000 -0.525000
v 0.050000 -0.010000 -0.475000
v -0.050000 -0.010000 -0.525000
v 0.050000 -0.010000 -0.525000
v -0.050000 -0.010000 0.475000
v 0.050000 0.010000 -0.475000
v -0.050000 -0.010000 -0.475000
vn -0.0000 -0.0000 -1.0000
vn -0.0000 -0.0000 1.0000
vn -0.0000 1.0000 -0.0000
vn 1.0000 -0.0000 -0.0000
vn -0.0000 -1.0000 -0.0000
vn -1.0000 -0.0000 -0.0000
vt 0.729881 0.728833
vt 0.753232 0.728833
vt 0.753232 0.845590
vt 0.729881 0.845590
vt 0.182667 0.337663
vt 0.185360 0.337663
vt 0.185360 0.344396
vt 0.182667 0.344396
vt 0.671502 0.320181
vt 0.648150 0.320181
vt 0.648150 0.261802
vt 0.671502 0.261802
vt 0.753232 0.261802
vt 0.729881 0.261802
vt 0.729881 0.145045
vt 0.753232 0.145045
vt 0.040859 0.716680
vt 0.040856 0.730189
vt 0.027350 0.730185
vt 0.027353 0.716679
vt 0.729881 0.320181
vt 0.185359 0.112106
vt 0.182666 0.112106
vt 0.182666 0.068341
vt 0.185359 0.068341
vt 0.589771 0.320181
vt 0.589771 0.261802
vt 0.185360 0.522822
vt 0.185360 0.566586
vt 0.182667 0.566586
vt 0.182667 0.522822
vt 0.729881 0.121693
vt 0.671502 0.145045
vt 0.671502 0.121693
vt 0.648150 0.145045
vt 0.589771 0.145045
vt 0.729881 0.868942
vt 0.671502 0.868942
vt 0.671502 0.845590
vt 0.648150 0.728833
vt 0.671502 0.728833
vt 0.648150 0.845590
vt 0.589771 0.728833
vt 0.589772 0.845590
vt 0.456947 0.854299
vt 0.470458 0.854296
vt 0.470462 0.867810
vt 0.456949 0.867814
vt 0.456925 0.759757
vt 0.470430 0.759752
vt 0.470435 0.773257
vt 0.456930 0.773261
vt 0.589771 0.670454
vt 0.648150 0.670454
vt 0.671502 0.670454
vt 0.729881 0.670454
vt 0.040856 0.622164
vt 0.040857 0.635662
vt 0.027356 0.635663
vt 0.027356 0.622164
vt 0.101661 0.716691
vt 0.101653 0.730206
vt 0.396106 0.854302
vt 0.396113 0.867823
vt 0.182667 0.290531
vt 0.185360 0.290531
vt 0.185360 0.297264
vt 0.182667 0.297264
vt 0.185360 0.351129
vt 0.182667 0.351129
vt 0.396103 0.759790
vt 0.396078 0.773323
vt 0.337250 0.541465
vt 0.346025 0.541465
vt 0.346025 0.585336
vt 0.337250 0.585336
vt 0.101653 0.622164
vt 0.101673 0.635691
vt 0.300817 0.588398
vt 0.300817 0.547326
vt 0.309032 0.547326
vt 0.309032 0.588398
vt 0.300817 0.157139
vt 0.309031 0.157139
vt 0.385508 0.689697
vt 0.385505 0.716730
vt 0.371989 0.716729
vt 0.371991 0.689696
vt 0.300817 0.116067
vt 0.309031 0.116067
vt 0.115212 0.689679
vt 0.115175 0.716705
vt 0.101676 0.689635
vt 0.473365 0.622110
vt 0.473365 0.635627
vt 0.385509 0.635630
vt 0.385508 0.622114
vt 0.371993 0.635630
vt 0.371992 0.622114
vt 0.115208 0.635652
vt 0.115184 0.622134
vt 0.337250 0.124694
vt 0.346025 0.124694
vt 0.346025 0.223403
vt 0.337250 0.223403
vt 0.112275 0.827317
vt 0.125790 0.827316
vt 0.125793 0.854347
vt 0.112278 0.854349
vt 0.346025 0.355015
vt 0.337250 0.355015
vt 0.382548 0.827291
vt 0.396084 0.827226
vt 0.382589 0.854315
vt 0.024425 0.759738
vt 0.112274 0.759740
vt 0.112273 0.773255
vt 0.024424 0.773253
vt 0.125789 0.759740
vt 0.125788 0.773255
vt 0.382573 0.759756
vt 0.382545 0.773270
vt 0.024424 0.854360
vt 0.112279 0.867865
vt 0.024426 0.867876
vt 0.125795 0.867863
vt 0.382597 0.867829
vt 0.473365 0.716739
vt 0.473364 0.730256
vt 0.385504 0.730247
vt 0.371987 0.730246
vt 0.115167 0.730218
vt 0.185360 0.381428
vt 0.182667 0.381428
vt 0.185360 0.388161
vt 0.182667 0.388161
vt 0.185360 0.516089
vt 0.182667 0.516089
vt 0.185360 0.283798
vt 0.182667 0.283798
vt 0.182666 0.253500
vt 0.185360 0.253500
vt 0.182666 0.246767
vt 0.185360 0.246767
vt 0.182666 0.118839
vt 0.185359 0.118839
vt 0.337250 0.453724
vt 0.346025 0.453724
vt 0.276320 0.167207
vt 0.276320 0.540912
vt 0.268453 0.540912
vt 0.268453 0.167207
vt 0.244076 0.382850
vt 0.244076 0.423923
vt 0.235862 0.423923
vt 0.235862 0.382851
vt 0.235862 0.300706
vt 0.235862 0.167221
vt 0.244076 0.167221
vt 0.244076 0.300706
vt 0.753232 0.320181
vt 0.753232 0.670454
vt 0.244076 0.557408
vt 0.235862 0.557408
vt 0.244076 0.341778
vt 0.235862 0.341778
vt 0.125788 0.800286
vt 0.112273 0.800286
vt 0.268453 0.127870
vt 0.276320 0.127870
vt 0.385509 0.662663
vt 0.371992 0.662663
vt 0.395840 0.800276
vt 0.382413 0.800278
vt 0.115351 0.662661
vt 0.101909 0.662662
vt 0.276320 0.580249
vt 0.268453 0.580249
vt 0.346025 0.497595
vt 0.337250 0.497595
vt 0.852551 0.414814
vt 0.857956 0.414814
vt 0.857956 0.671570
vt 0.852551 0.671570
vt 0.820118 0.414814
vt 0.825524 0.414814
vt 0.825524 0.671570
vt 0.820118 0.671570
vt 0.793091 0.414814
vt 0.793091 0.671570
s 1
usemtl Material_Vehicle_Base_Composite
f 9/1/1 8/2/1 17/3/1 18/4/1
f 23/5/1 37/6/1 6/7/1 5/8/1
f 19/9/2 22/10/2 4/11/2 1/12/2
f 7/13/1 10/14/1 14/15/1 13/16/1
f 28/17/3 34/18/3 70/19/3 24/20/3
f 19/9/3 1/12/3 10/14/3 25/21/3
f 46/22/4 50/23/4 10/24/4 7/25/4
f 22/10/5 31/26/5 7/27/5 4/11/5
f 58/28/6 8/29/6 9/30/6 54/31/6
f 13/32/4 14/15/4 12/33/4 11/34/4
f 10/14/3 1/12/3 12/33/3 14/15/3
f 1/12/2 4/11/2 11/35/2 12/33/2
f 4/11/5 7/27/5 13/36/5 11/35/5
f 17/37/6 15/38/6 16/39/6 18/4/6
f 3/40/2 2/41/2 16/39/2 15/42/2
f 8/43/5 3/40/5 15/42/5 17/44/5
f 2/41/3 9/1/3 18/4/3 16/39/3
f 30/45/5 32/46/5 71/47/5 72/48/5
f 36/49/5 6/50/5 37/51/5 33/52/5
f 33/52/5 37/51/5 32/46/5 30/45/5
f 3/40/5 8/43/5 27/53/5 21/54/5
f 21/54/5 27/53/5 31/26/5 22/10/5
f 2/41/3 20/55/3 26/56/3 9/1/3
f 20/55/3 19/9/3 25/21/3 26/56/3
f 35/57/3 29/58/3 23/59/3 5/60/3
f 29/58/3 28/17/3 24/20/3 23/59/3
f 2/41/2 3/40/2 21/54/2 20/55/2
f 41/61/3 53/62/3 34/18/3 28/17/3
f 20/55/2 21/54/2 22/10/2 19/9/2
f 66/63/5 30/45/5 72/48/5 49/64/5
f 70/65/1 71/66/1 32/67/1 24/68/1
f 6/7/6 36/69/6 35/70/6 5/8/6
f 61/71/5 36/49/5 33/52/5 62/72/5
f 82/73/1 84/74/1 62/75/1 45/76/1
f 57/77/3 45/78/3 29/58/3 35/57/3
f 24/68/1 32/67/1 37/6/1 23/5/1
f 80/79/2 44/80/2 63/81/2 88/82/2
f 43/83/4 64/84/4 63/81/4 44/80/4
f 73/85/3 38/86/3 39/87/3 75/88/3
f 76/89/1 86/90/1 64/84/1 43/83/1
f 87/91/3 40/92/3 41/61/3 81/93/3
f 9/94/3 26/95/3 42/96/3 54/97/3
f 54/97/3 42/96/3 43/98/3 55/99/3
f 55/99/3 43/98/3 44/100/3 56/101/3
f 56/101/3 44/100/3 45/78/3 57/77/3
f 45/102/4 62/103/4 33/104/4 29/105/4
f 78/106/5 79/107/5 68/108/5 69/109/5
f 33/104/2 30/110/2 28/111/2 29/105/2
f 83/112/5 85/113/5 66/63/5 67/114/5
f 8/115/5 58/116/5 65/117/5 27/118/5
f 58/116/5 59/119/5 64/120/5 65/117/5
f 59/119/5 60/121/5 63/122/5 64/120/5
f 60/121/5 61/71/5 62/72/5 63/122/5
f 31/123/5 69/109/5 46/124/5 7/125/5
f 69/109/5 68/108/5 47/126/5 46/124/5
f 68/108/5 67/114/5 48/127/5 47/126/5
f 67/114/5 66/63/5 49/64/5 48/127/5
f 25/128/3 10/129/3 50/130/3 38/86/3
f 38/86/3 50/130/3 51/131/3 39/87/3
f 39/87/3 51/131/3 52/132/3 40/92/3
f 40/92/3 52/132/3 53/62/3 41/61/3
f 36/69/6 61/133/6 57/134/6 35/70/6
f 61/133/6 60/135/6 56/136/6 57/134/6
f 60/135/6 59/137/6 55/138/6 56/136/6
f 59/137/6 58/28/6 54/31/6 55/138/6
f 72/139/4 34/140/4 53/141/4 49/142/4
f 49/142/4 53/141/4 52/143/4 48/144/4
f 48/144/4 52/143/4 51/145/4 47/146/4
f 47/146/4 51/145/4 50/23/4 46/22/4
f 41/147/6 28/111/6 30/110/6 66/148/6
f 39/149/6 40/150/6 67/151/6 68/152/6
f 74/153/2 42/154/2 65/155/2 77/156/2
f 69/157/6 31/158/6 25/159/6 38/160/6
f 25/21/1 31/161/1 27/162/1 26/56/1
f 65/155/4 42/154/4 26/163/4 27/164/4
f 71/66/4 70/65/4 34/140/4 72/139/4
f 38/160/2 73/165/2 78/166/2 69/157/2
f 73/165/2 74/153/2 77/156/2 78/166/2
f 65/117/5 64/120/5 86/167/5 77/168/5
f 77/168/5 86/167/5 79/107/5 78/106/5
f 39/149/1 68/152/1 79/169/1 75/170/1
f 42/96/3 74/171/3 76/172/3 43/98/3
f 74/171/3 73/85/3 75/88/3 76/172/3
f 63/122/5 62/72/5 84/173/5 88/174/5
f 88/174/5 84/173/5 85/113/5 83/112/5
f 44/100/3 80/175/3 82/176/3 45/78/3
f 80/175/3 87/91/3 81/93/3 82/176/3
f 40/150/2 87/177/2 83/178/2 67/151/2
f 41/147/1 66/148/1 85/179/1 81/180/1
f 81/180/1 85/179/1 84/74/1 82/73/1
f 75/181/4 79/182/4 83/183/4 87/184/4
f 86/185/6 76/186/6 80/187/6 88/188/6
f 79/189/5 86/185/5 88/188/5 83/190/5
f 76/186/3 75/181/3 87/184/3 80/187/3
