# Blender 4.3.0
# www.blender.org
mtllib Anchor_Spot_Light.mtl
o Anchor_Spot_Light
v 0.100000 0.100000 0.400000
v 0.100000 -0.100000 0.400000
v -0.100000 0.100000 0.400000
v -0.100000 -0.100000 0.400000
v 0.000000 0.000000 0.000000
vn 0.9701 -0.0000 -0.2425
vn -0.9701 -0.0000 -0.2425
vn -0.0000 0.9701 -0.2425
vn -0.0000 -0.9701 -0.2425
vt 0.375000 0.000000
vt 0.625000 0.000000
vt 0.375000 0.250000
vt 0.625000 0.500000
vt 0.625000 0.750000
vt 0.375000 0.750000
vt 0.375000 0.500000
vt 0.125000 0.750000
vt 0.875000 0.500000
vt 0.875000 0.750000
s 1
f 1/1/1 2/2/1 5/3/1
f 5/4/2 4/5/2 3/6/2
f 5/7/3 3/6/3 1/8/3
f 5/9/4 2/10/4 4/5/4
