# Blender 4.3.0
# www.blender.org
mtllib Anchor_Point_Light.mtl
o Anchor_Point_Light
v -0.100000 0.000000 -0.100000
v 0.000000 -0.200000 0.000000
v -0.100000 0.000000 0.100000
v 0.100000 0.000000 -0.100000
v -0.000000 0.200000 0.000000
v 0.100000 0.000000 0.100000
vn -0.8944 -0.4472 -0.0000
vn -0.0000 -0.4472 0.8944
vn 0.8944 -0.4472 -0.0000
vn -0.0000 -0.4472 -0.8944
vn 0.8944 0.4472 -0.0000
vn -0.0000 0.4472 0.8944
vn -0.8944 0.4472 -0.0000
vn -0.0000 0.4472 -0.8944
vt 0.375000 0.000000
vt 0.625000 0.250000
vt 0.375000 0.250000
vt 0.625000 0.500000
vt 0.375000 0.500000
vt 0.625000 0.750000
vt 0.375000 0.750000
vt 0.625000 1.000000
vt 0.375000 1.000000
s 1
f 1/1/1 2/2/1 3/3/1
f 3/3/2 2/4/2 6/5/2
f 6/5/3 2/6/3 4/7/3
f 4/7/4 2/8/4 1/9/4
f 4/1/5 5/2/5 6/3/5
f 6/3/6 5/4/6 3/5/6
f 3/5/7 5/6/7 1/7/7
f 1/7/8 5/8/8 4/9/8
