# Blender 3.6.1
# www.blender.org
mtllib Bridge.mtl
o Bridge
v 1.333333 0.000000 -6.000000
v 4.000000 0.000000 -6.000000
v 1.333333 0.000000 -2.000000
v 4.000000 0.000000 -2.000000
v 1.333333 -2.000000 -6.000000
v 4.000000 -2.000000 -6.000000
v 1.333333 -2.000000 -2.000000
v 4.000000 -2.000000 -2.000000
v 1.333333 -4.000000 -6.000000
v 4.000000 -4.000000 -6.000000
v 1.333333 -4.000000 -2.000000
v 4.000000 -4.000000 -2.000000
v 1.333333 0.000000 2.000000
v 4.000000 0.000000 2.000000
v 4.000000 -2.000000 2.000000
v 1.333333 -2.000000 2.000000
v 1.333333 -4.000000 2.000000
v 4.000000 -4.000000 2.000000
v 1.333333 0.000000 6.000000
v 4.000000 0.000000 6.000000
v 1.333333 -2.000000 6.000000
v 4.000000 -2.000000 6.000000
v 1.333333 -4.000000 6.000000
v 4.000000 -4.000000 6.000000
v -1.333333 0.000000 -6.000000
v -1.333333 0.000000 -2.000000
v -1.333333 -2.000000 -6.000000
v -1.333333 -4.000000 -6.000000
v -1.333333 -2.000000 -2.000000
v -1.333333 -4.000000 -2.000000
v -1.333333 0.000000 2.000000
v -1.333333 0.000000 6.000000
v -1.333333 -2.000000 2.000000
v -1.333333 -4.000000 2.000000
v -1.333333 -2.000000 6.000000
v -1.333333 -4.000000 6.000000
v -4.000000 0.000000 -6.000000
v -4.000000 0.000000 -2.000000
v -4.000000 -2.000000 -6.000000
v -4.000000 -2.000000 -2.000000
v -4.000000 -4.000000 -6.000000
v -4.000000 -4.000000 -2.000000
v -4.000000 0.000000 2.000000
v -4.000000 -2.000000 2.000000
v -4.000000 -4.000000 2.000000
v -4.000000 0.000000 6.000000
v -4.000000 -2.000000 6.000000
v -4.000000 -4.000000 6.000000
vn 1.0000 -0.0000 -0.0000
vn -1.0000 -0.0000 -0.0000
vn -0.0000 -0.0000 -1.0000
vn -0.0000 -0.0000 1.0000
vn -0.0000 -1.0000 -0.0000
vn -0.0000 1.0000 -0.0000
vt 0.000000 0.000000
vt 1.000000 0.000000
vt 1.000000 1.000000
vt 0.000000 1.000000
s 1
usemtl Material_Bridge
f 6/1/1 2/2/1 4/3/1 8/4/1
f 3/1/2 1/2/2 5/3/2 7/4/2
f 1/1/3 2/2/3 6/3/3 5/4/3
f 8/1/4 4/2/4 3/3/4 7/4/4
f 10/1/1 6/2/1 8/3/1 12/4/1
f 5/1/3 6/2/3 10/3/3 9/4/3
f 9/1/5 10/2/5 12/3/5 11/4/5
f 26/2/6 25/2/6 37/2/6 38/3/6
f 12/1/1 8/2/1 15/3/1 18/4/1
f 16/1/2 7/2/2 11/3/2 17/4/2
f 15/1/6 8/2/6 7/3/6 16/4/6
f 11/1/5 12/2/5 18/3/5 17/4/5
f 15/1/1 14/2/1 20/3/1 22/4/1
f 19/1/2 13/2/2 16/3/2 21/4/2
f 13/1/3 14/2/3 15/3/3 16/4/3
f 22/1/4 20/2/4 19/3/4 21/4/4
f 18/1/1 15/2/1 22/3/1 24/4/1
f 24/1/4 22/2/4 21/3/4 23/4/4
f 17/1/5 18/2/5 24/3/5 23/4/5
f 3/3/6 4/2/6 2/2/6 1/1/6
f 27/1/3 5/2/3 9/3/3 28/4/3
f 11/1/4 7/2/4 29/3/4 30/4/4
f 7/1/6 5/2/6 27/3/6 29/4/6
f 28/1/5 9/2/5 11/3/5 30/4/5
f 19/3/6 20/2/6 14/2/6 13/1/6
f 33/1/3 16/2/3 17/3/3 34/4/3
f 23/1/4 21/2/4 35/3/4 36/4/4
f 21/1/6 16/2/6 33/3/6 35/4/6
f 34/1/5 17/2/5 23/3/5 36/4/5
f 27/1/1 25/2/1 26/3/1 29/4/1
f 38/1/2 37/2/2 39/3/2 40/4/2
f 37/1/3 25/2/3 27/3/3 39/4/3
f 29/1/4 26/2/4 38/3/4 40/4/4
f 40/1/2 39/2/2 41/3/2 42/4/2
f 39/1/3 27/2/3 28/3/3 41/4/3
f 41/1/5 28/2/5 30/3/5 42/4/5
f 32/2/6 31/2/6 43/2/6 46/3/6
f 30/1/1 29/2/1 33/3/1 34/4/1
f 44/1/2 40/2/2 42/3/2 45/4/2
f 33/1/6 29/2/6 40/3/6 44/4/6
f 42/1/5 30/2/5 34/3/5 45/4/5
f 33/1/1 31/2/1 32/3/1 35/4/1
f 46/1/2 43/2/2 44/3/2 47/4/2
f 43/1/3 31/2/3 33/3/3 44/4/3
f 35/1/4 32/2/4 46/3/4 47/4/4
f 47/1/2 44/2/2 45/3/2 48/4/2
f 36/1/4 35/2/4 47/3/4 48/4/4
f 45/1/5 34/2/5 36/3/5 48/4/5
