# Blender 3.6.1
# www.blender.org
mtllib Model_2.mtl
o Cube.001
v -0.500000 0.500000 0.500000
v -0.500000 -0.500000 0.500000
v 0.500000 0.500000 0.500000
v 0.500000 -0.500000 0.500000
v -0.500000 0.500000 -0.500000
v -0.500000 -0.500000 -0.500000
v 0.500000 0.500000 -0.500000
v 0.500000 -0.500000 -0.500000
vn -0.0000 -0.0000 1.0000
vn -0.0000 -0.0000 -1.0000
vn -0.0000 1.0000 -0.0000
vn -0.0000 -1.0000 -0.0000
vn 1.0000 -0.0000 -0.0000
vn -1.0000 -0.0000 -0.0000
vt 0.746041 0.628671
vt 0.746041 0.995337
vt 0.379374 0.995337
vt 0.379374 0.628671
vt 0.371242 0.629039
vt 0.371242 0.995706
vt 0.004575 0.995706
vt 0.004575 0.629039
vt 0.370873 0.254844
vt 0.370873 0.621510
vt 0.004207 0.621510
vt 0.004207 0.254844
vt 0.746364 0.254584
vt 0.746364 0.621250
vt 0.379697 0.621250
vt 0.379697 0.254584
vt 0.753812 0.620862
vt 0.753812 0.254195
vt 1.120479 0.254195
vt 1.120479 0.620862
vt 0.754699 0.627919
vt 1.121366 0.627919
vt 1.121366 0.994586
vt 0.754699 0.994586
s 0
usemtl Material_Cube_3
f 1/1/1 2/2/1 4/3/1 3/4/1
f 7/5/2 8/6/2 6/7/2 5/8/2
usemtl 
f 3/9/3 7/10/3 5/11/3 1/12/3
f 8/13/4 4/14/4 2/15/4 6/16/4
f 7/17/5 3/18/5 4/19/5 8/20/5
f 2/21/6 1/22/6 5/23/6 6/24/6
