# Blender 3.6.1
# www.blender.org
mtllib T_Beam.mtl
o T_Beam
v -0.500000 -0.000000 2.000000
v -0.100000 -0.000000 2.000000
v 0.100000 -0.000000 2.000000
v 0.500000 -0.000000 2.000000
v 0.500000 -0.200000 2.000000
v 0.100000 -0.200000 2.000000
v 0.100000 -2.000000 2.000000
v -0.100000 -2.000000 2.000000
v -0.100000 -0.200000 2.000000
v -0.500000 -0.200000 2.000000
v -0.500000 0.000000 -2.000000
v -0.100000 0.000000 -2.000000
v 0.100000 0.000000 -2.000000
v 0.500000 0.000000 -2.000000
v 0.500000 -0.200000 -2.000000
v 0.100000 -0.200000 -2.000000
v 0.100000 -2.000000 -2.000000
v -0.100000 -2.000000 -2.000000
v -0.100000 -0.200000 -2.000000
v -0.500000 -0.200000 -2.000000
vn -0.0000 -0.0000 1.0000
vn -0.0000 -0.0000 -1.0000
vn -0.0000 1.0000 -0.0000
vn 1.0000 -0.0000 -0.0000
vn -0.0000 -1.0000 -0.0000
vn -1.0000 -0.0000 -0.0000
s 1
usemtl Material_Beam
f 1//1 10//1 9//1 2//1
f 2//1 9//1 6//1 3//1
f 3//1 6//1 5//1 4//1
f 6//1 9//1 8//1 7//1
f 11//2 12//2 19//2 20//2
f 12//2 13//2 16//2 19//2
f 13//2 14//2 15//2 16//2
f 16//2 17//2 18//2 19//2
f 1//3 2//3 12//3 11//3
f 2//3 3//3 13//3 12//3
f 3//3 4//3 14//3 13//3
f 4//4 5//4 15//4 14//4
f 5//5 6//5 16//5 15//5
f 6//4 7//4 17//4 16//4
f 7//5 8//5 18//5 17//5
f 8//6 9//6 19//6 18//6
f 9//5 10//5 20//5 19//5
f 10//6 1//6 11//6 20//6
